<?xml version="1.0" encoding="UTF-8"?>
<svg version="1.1" xmlns="http://www.w3.org/2000/svg" width="360" height="360">
<path d="M0 0 C1.2684375 0.86625 1.2684375 0.86625 2.5625 1.75 C3.95361342 2.65314534 5.3497924 3.54851927 6.75 4.4375 C7.42417969 4.87449219 8.09835938 5.31148437 8.79296875 5.76171875 C10.51572046 6.91253512 10.51572046 6.91253512 12.5625 6.75 C12.5625 7.41 12.5625 8.07 12.5625 8.75 C16.45415975 11.0096734 19.38582447 10.81822259 23.6796875 9.7265625 C30.82711463 7.30534735 37.81685688 4.12282156 44.5625 0.75 C47.875 0.1875 47.875 0.1875 51.5625 0.75 C56.55833733 6.39003492 59.301615 14.40724368 62.34375 21.2109375 C62.71757812 22.025625 63.09140625 22.8403125 63.4765625 23.6796875 C63.8060791 24.41429199 64.1355957 25.14889648 64.47509766 25.90576172 C65.57081799 28.06971344 65.57081799 28.06971344 68.5625 29.75 C70.64019293 30.13232831 70.64019293 30.13232831 72.875 30.25 C76.72042358 30.51844144 79.91290516 31.52435579 83.5625 32.75 C86.94721185 33.43087808 90.33602445 34.06671614 93.734375 34.67578125 C96.5625 35.75 96.5625 35.75 98 37.828125 C98.75126027 41.73050474 98.35352708 45.29548641 97.8125 49.1875 C97.72484375 49.92548828 97.6371875 50.66347656 97.546875 51.42382812 C96.99362354 55.74610518 96.09210637 59.64705585 94.5625 63.75 C93.13755108 67.0560486 93.13755108 67.0560486 93.5625 70.75 C95.54020306 73.22781187 97.72396064 75.27162235 100.0703125 77.40234375 C103.15002325 80.30345059 105.56643704 83.49452246 108.0546875 86.90234375 C109.61172461 88.99509646 109.61172461 88.99509646 112.5625 90.75 C113.65374685 93.18431989 113.63130701 94.46712672 113 97.0625 C109.43454258 103.72835517 103.59947711 109.27665435 97.5625 113.75 C96.9025 113.75 96.2425 113.75 95.5625 113.75 C95.2325 114.74 94.9025 115.73 94.5625 116.75 C94.04389404 117.20286377 93.52528809 117.65572754 92.9909668 118.12231445 C91.33063851 119.68178856 91.33063851 119.68178856 91.40551758 122.07495117 C91.50501709 122.97189697 91.6045166 123.86884277 91.70703125 124.79296875 C91.80693359 125.78490234 91.90683594 126.77683594 92.00976562 127.79882812 C92.13029297 128.83458984 92.25082031 129.87035156 92.375 130.9375 C94.36973449 149.5510875 94.36973449 149.5510875 92.45654297 152.39257812 C89.73446253 154.34343753 87.30485567 154.49445981 83.99609375 154.91796875 C82.0615332 155.17416992 82.0615332 155.17416992 80.08789062 155.43554688 C78.72528056 155.60302856 77.3626501 155.77034437 76 155.9375 C74.63331478 156.11539732 73.26677571 156.29442133 71.90039062 156.47460938 C62.05673866 157.75 62.05673866 157.75 59.5625 157.75 C58.73604042 159.46190404 58.73604042 159.46190404 58.5625 161.75 C59.90053917 164.60993922 59.90053917 164.60993922 61.875 167.4375 C62.51050781 168.41074219 63.14601562 169.38398438 63.80078125 170.38671875 C65.34582411 172.82908678 65.34582411 172.82908678 67.5625 173.75 C68.5625 176.08333333 69.5625 178.41666667 70.5625 180.75 C71.2225 181.08 71.8825 181.41 72.5625 181.75 C73.58015927 183.74107248 74.57827854 185.74218823 75.5625 187.75 C76.119375 188.4925 76.67625 189.235 77.25 190 C78.5625 191.75 78.5625 191.75 78.5625 193.75 C79.2225 194.08 79.8825 194.41 80.5625 194.75 C81.63381465 196.27832976 82.64436 197.84946595 83.625 199.4375 C84.23859375 200.41976562 84.8521875 201.40203125 85.484375 202.4140625 C86.17015625 203.51492187 86.8559375 204.61578125 87.5625 205.75 C89.15819079 208.27628916 90.76509709 210.79525071 92.375 213.3125 C92.75986572 213.91989014 93.14473145 214.52728027 93.54125977 215.15307617 C95.08429856 217.56682728 96.52998637 219.71748637 98.5625 221.75 C99.52067744 223.46811128 100.47851961 225.1864117 101.43359375 226.90625 C102.80106043 229.13962119 104.5050309 231.0044351 106.22265625 232.97265625 C107.88390348 235.17635156 109.09539528 237.49272675 110.375 239.9375 C113.13288647 245.19404601 116.41751115 249.82854452 120.0234375 254.53515625 C121.5625 256.75 121.5625 256.75 121.5625 258.75 C122.2225 259.08 122.8825 259.41 123.5625 259.75 C124.77740229 261.50931605 125.93664437 263.30741103 127.0625 265.125 C127.6709375 266.10210937 128.279375 267.07921875 128.90625 268.0859375 C129.72609375 269.40464844 129.72609375 269.40464844 130.5625 270.75 C131.5525 272.235 131.5525 272.235 132.5625 273.75 C133 277.1875 133 277.1875 132.5625 280.75 C130.0625 283.1875 130.0625 283.1875 127.5625 284.75 C125.5625 283.75 123.5625 282.75 121.5625 281.75 C120.82 281.399375 120.0775 281.04875 119.3125 280.6875 C117.5625 279.75 117.5625 279.75 115.5625 277.75 C114.23982273 276.73594743 112.90525169 275.73731742 111.5625 274.75 C109.44529975 273.17917401 107.3615434 271.58805057 105.30859375 269.93359375 C102.43364704 267.64754082 99.5080856 265.4441607 96.5625 263.25 C93.61898594 261.05738238 90.70563193 258.86816706 87.875 256.53125 C85.60649331 254.58222593 85.60649331 254.58222593 82.5625 253.75 C82.5625 253.09 82.5625 252.43 82.5625 251.75 C82.005625 251.481875 81.44875 251.21375 80.875 250.9375 C78.36537477 249.64877353 75.96915764 248.22073522 73.5625 246.75 C72.22587587 247.85373569 72.22587587 247.85373569 72.52832031 250.62988281 C72.56538086 251.89155273 72.60244141 253.15322266 72.640625 254.453125 C72.66790113 255.83982002 72.69390175 257.2265406 72.71875 258.61328125 C72.76188628 260.80391791 72.81227592 262.99323063 72.88476562 265.18310547 C72.9516767 267.29415002 72.98622835 269.40376688 73.015625 271.515625 C73.04817383 272.78180664 73.08072266 274.04798828 73.11425781 275.35253906 C72.41616414 279.65106631 70.95163778 281.10845228 67.5625 283.75 C64.28670735 283.83920464 63.06132493 283.21474373 60.67578125 280.9921875 C55.75788632 274.52744927 51.20187815 267.86849743 46.76171875 261.0703125 C45.5032242 259.17027633 44.21280272 257.2887477 42.8359375 255.47265625 C41.5625 253.75 41.5625 253.75 40.5 251.0625 C39.79446154 248.59061395 39.79446154 248.59061395 37.5625 247.75 C36.53864373 246.34398011 35.56590408 244.90033052 34.625 243.4375 C33.10241846 241.08158739 31.59716634 238.79443376 29.87109375 236.58203125 C28.5625 234.75 28.5625 234.75 28.5625 232.75 C27.9025 232.42 27.2425 232.09 26.5625 231.75 C24.42482074 228.77020466 22.7252002 226.23810059 21.5625 222.75 C20.9025 222.42 20.2425 222.09 19.5625 221.75 C18.63999272 220.42773956 17.77022289 219.06806689 16.9375 217.6875 C16.49148437 216.95402344 16.04546875 216.22054687 15.5859375 215.46484375 C15.24820313 214.89894531 14.91046875 214.33304688 14.5625 213.75 C12.7864106 216.4549197 11.01760222 219.164528 9.25 221.875 C8.75048828 222.63554687 8.25097656 223.39609375 7.73632812 224.1796875 C5.58419805 227.48627145 3.58656591 230.70143357 1.83203125 234.2421875 C0.5625 236.75 0.5625 236.75 -1.4375 237.75 C-2.13035462 239.4059513 -2.79263449 241.07477742 -3.4375 242.75 C-4.38318037 244.43589258 -5.36349217 246.10276078 -6.375 247.75 C-6.87902344 248.575 -7.38304687 249.4 -7.90234375 250.25 C-8.40894531 251.075 -8.91554688 251.9 -9.4375 252.75 C-10.21480469 254.06871094 -10.21480469 254.06871094 -11.0078125 255.4140625 C-12.4375 257.75 -12.4375 257.75 -14.375 260.125 C-16.26780428 262.53402363 -17.75058358 264.97525772 -19.234375 267.6484375 C-20.7573802 270.30875178 -22.36980744 272.90402109 -24 275.5 C-24.57878906 276.42296875 -25.15757812 277.3459375 -25.75390625 278.296875 C-27.20034474 280.40444662 -28.47580946 282.12323223 -30.4375 283.75 C-32.9375 284.125 -32.9375 284.125 -35.4375 283.75 C-37.9423111 281.87139167 -38.42450625 280.78898126 -39.4375 277.75 C-39.87759514 273.46576645 -40.14128073 269.16835578 -40.42236328 264.87109375 C-40.56202156 262.75724161 -40.71227753 260.64431829 -40.86328125 258.53125 C-40.95377079 257.18754333 -41.0436356 255.84379442 -41.1328125 254.5 C-41.21547363 253.27796875 -41.29813477 252.0559375 -41.38330078 250.796875 C-41.4375 247.75 -41.4375 247.75 -40.4375 244.75 C-41.035625 245.389375 -41.63375 246.02875 -42.25 246.6875 C-44.4375 248.75 -44.4375 248.75 -47.4375 249.75 C-48.46073032 250.72621704 -49.45862419 251.72931291 -50.4375 252.75 C-51.71274808 253.75045613 -53.00551547 254.72887516 -54.3125 255.6875 C-56.55200173 257.34473128 -58.76151517 259.00921214 -60.9375 260.75 C-63.15171772 262.52137418 -65.37660072 264.27232515 -67.625 266 C-68.29917969 266.52078125 -68.97335938 267.0415625 -69.66796875 267.578125 C-71.4375 268.75 -71.4375 268.75 -73.4375 268.75 C-73.4375 269.41 -73.4375 270.07 -73.4375 270.75 C-75.43034138 272.0940093 -77.43169671 273.42541292 -79.4375 274.75 C-80.22125 275.575 -81.005 276.4 -81.8125 277.25 C-85.02481209 280.30934484 -88.23172974 282.31969756 -92.4375 283.75 C-95.97029727 283.59640012 -96.93561382 283.25188618 -99.4375 280.75 C-99.63896402 277.056493 -99.61103189 274.27059568 -98.4375 270.75 C-97.7775 270.75 -97.1175 270.75 -96.4375 270.75 C-96.1075 269.1 -95.7775 267.45 -95.4375 265.75 C-94.7775 265.75 -94.1175 265.75 -93.4375 265.75 C-93.14875 264.615625 -92.86 263.48125 -92.5625 262.3125 C-92.19125 261.136875 -91.82 259.96125 -91.4375 258.75 C-90.7775 258.42 -90.1175 258.09 -89.4375 257.75 C-88.38728897 255.90028304 -88.38728897 255.90028304 -87.4375 253.75 C-85.65972222 249.86111111 -85.65972222 249.86111111 -83.4375 248.75 C-82.76069874 247.087423 -82.0961055 245.41986856 -81.4375 243.75 C-79.65989284 240.84228512 -77.78164029 238.01595852 -75.8984375 235.17578125 C-74.26552831 232.93641014 -74.26552831 232.93641014 -74.4375 230.75 C-73.7775 230.75 -73.1175 230.75 -72.4375 230.75 C-72.1075 229.1 -71.7775 227.45 -71.4375 225.75 C-70.7775 225.75 -70.1175 225.75 -69.4375 225.75 C-69.169375 225.04359375 -68.90125 224.3371875 -68.625 223.609375 C-67.38769045 220.63006384 -65.97127449 217.83748281 -64.4375 215 C-63.921875 214.03578125 -63.40625 213.0715625 -62.875 212.078125 C-61.4375 209.75 -61.4375 209.75 -59.4375 208.75 C-58.72502268 207.1023962 -58.06349617 205.43236471 -57.4375 203.75 C-53.45790816 195.26020408 -53.45790816 195.26020408 -50.4375 193.75 C-50.4375 192.76 -50.4375 191.77 -50.4375 190.75 C-49.7775 190.75 -49.1175 190.75 -48.4375 190.75 C-48.169375 190.04875 -47.90125 189.3475 -47.625 188.625 C-44.09503425 180.07876712 -44.09503425 180.07876712 -41.4375 178.75 C-41.15261719 178.03714844 -40.86773437 177.32429687 -40.57421875 176.58984375 C-38.73651327 171.99873762 -35.77554171 168.09206887 -33.01953125 164.00390625 C-31.20738402 160.8604765 -31.20738402 160.8604765 -31.38671875 157.46484375 C-32.17491511 154.6090655 -32.17491511 154.6090655 -34.59765625 153.4375 C-37.68701569 152.68959455 -40.72324463 152.16577927 -43.875 151.75 C-48.30284613 151.16449968 -52.21534158 150.19113165 -56.4375 148.75 C-59.18815232 148.58142517 -59.18815232 148.58142517 -61.4375 148.75 C-61.4375 148.09 -61.4375 147.43 -61.4375 146.75 C-62.4275 146.42 -63.4175 146.09 -64.4375 145.75 C-65.75 142.4375 -65.75 142.4375 -66.4375 138.75 C-65.81460001 137.39566702 -65.14260311 136.06341228 -64.4375 134.75 C-63.44722914 131.14510531 -62.77205742 127.48172143 -62.0625 123.8125 C-61.84722656 122.82314453 -61.63195312 121.83378906 -61.41015625 120.81445312 C-60.19222444 115.06240406 -60.19222444 115.06240406 -62.13671875 109.71875 C-62.89597656 109.0690625 -63.65523437 108.419375 -64.4375 107.75 C-65.26314453 107.03650391 -65.26314453 107.03650391 -66.10546875 106.30859375 C-66.60691406 105.93863281 -67.10835937 105.56867188 -67.625 105.1875 C-71.18947889 102.09828496 -71.18947889 102.09828496 -71.4375 98.75 C-72.0975 98.75 -72.7575 98.75 -73.4375 98.75 C-74.80823786 97.11395804 -76.13805256 95.44321939 -77.4375 93.75 C-78.015 93.29625 -78.5925 92.8425 -79.1875 92.375 C-80.4375 90.75 -80.4375 90.75 -81.0625 87.4375 C-80.18303418 82.24865164 -77.56691109 80.69834779 -73.4375 77.75 C-69.85233139 74.9330818 -66.62331508 72.01546045 -63.4375 68.75 C-62.48875 68.110625 -61.54 67.47125 -60.5625 66.8125 C-56.35437045 60.7478427 -59.04150909 52.40945999 -60.07421875 45.41796875 C-60.17532959 44.70229736 -60.27644043 43.98662598 -60.38061523 43.24926758 C-60.5817515 41.85699501 -60.80071552 40.46715574 -61.03930664 39.08081055 C-61.51433709 35.90256372 -61.68603883 34.17865967 -60.046875 31.3515625 C-59.51578125 30.82304688 -58.9846875 30.29453125 -58.4375 29.75 C-57.9425 29.255 -57.9425 29.255 -57.4375 28.75 C-55.15168612 28.37868018 -52.85634471 28.06572545 -50.55859375 27.77734375 C-49.8719313 27.68997452 -49.18526886 27.60260529 -48.47779846 27.5125885 C-46.27735058 27.23354795 -44.07620909 26.96046431 -41.875 26.6875 C-40.38601836 26.49973985 -38.89708533 26.31159385 -37.40820312 26.12304688 C-33.75185617 25.66088038 -30.09486418 25.20405462 -26.4375 24.75 C-25.7775 22.44 -25.1175 20.13 -24.4375 17.75 C-23.7775 17.75 -23.1175 17.75 -22.4375 17.75 C-21.7775 15.44 -21.1175 13.13 -20.4375 10.75 C-19.7775 10.75 -19.1175 10.75 -18.4375 10.75 C-18.169375 10.04875 -17.90125 9.3475 -17.625 8.625 C-14.22715922 0.39864865 -14.22715922 0.39864865 -11.6875 -1.6875 C-7.49750192 -2.73499952 -3.80111541 -1.94928995 0 0 Z M-5.4375 12.75 C-6.29274761 14.16601436 -7.14660246 15.58286988 -8 17 C-8.81791016 18.35351562 -8.81791016 18.35351562 -9.65234375 19.734375 C-10.88179905 21.81126667 -12.08073038 23.90643139 -13.25390625 26.015625 C-13.85074219 27.08296875 -14.44757813 28.1503125 -15.0625 29.25 C-15.61164063 30.2503125 -16.16078125 31.250625 -16.7265625 32.28125 C-19.28412882 35.97161967 -21.23170112 36.52025252 -25.57421875 37.34765625 C-26.74597656 37.50105469 -27.91773438 37.65445313 -29.125 37.8125 C-30.35863281 37.97621094 -31.59226563 38.13992187 -32.86328125 38.30859375 C-37.05189333 38.8258759 -41.23946436 39.31572045 -45.4375 39.75 C-47.27771727 43.59279388 -47.56673135 45.98714855 -46.87890625 50.171875 C-44.52886573 66.87902967 -44.52886573 66.87902967 -47.08984375 72.15234375 C-49.4149068 74.41550829 -51.66075838 76.0830777 -54.4375 77.75 C-55.64124727 78.70912258 -56.83180227 79.6853834 -58 80.6875 C-58.804375 81.368125 -59.60875 82.04875 -60.4375 82.75 C-60.4375 83.41 -60.4375 84.07 -60.4375 84.75 C-62.4175 85.74 -62.4175 85.74 -64.4375 86.75 C-63.17402109 91.382756 -60.55715158 93.82992563 -57.18359375 97.03515625 C-55.4375 98.75 -55.4375 98.75 -53.125 101.6875 C-52.568125 102.368125 -52.01125 103.04875 -51.4375 103.75 C-50.7775 103.75 -50.1175 103.75 -49.4375 103.75 C-47.13253585 110.61653657 -47.73018345 115.51225425 -49.3125 122.5 C-49.70874975 124.34831335 -50.10209492 126.19725237 -50.4921875 128.046875 C-50.76264893 129.25875488 -50.76264893 129.25875488 -51.03857422 130.49511719 C-51.55364071 133.02482236 -51.55364071 133.02482236 -51.4375 136.75 C-50.29535034 136.95979492 -50.29535034 136.95979492 -49.13012695 137.17382812 C-45.66245479 137.83116667 -42.20723343 138.53988535 -38.75 139.25 C-37.55181641 139.46914062 -36.35363281 139.68828125 -35.11914062 139.9140625 C-26.52031301 141.73442712 -26.52031301 141.73442712 -23.6171875 144.45727539 C-22.2896574 146.50682652 -21.34128368 148.48333582 -20.4375 150.75 C-20.11789307 151.45302246 -19.79828613 152.15604492 -19.46899414 152.88037109 C-18.21813373 155.67922374 -17.07933891 158.51739779 -15.9453125 161.36523438 C-15.18560021 163.19372372 -14.31881895 164.97691993 -13.4375 166.75 C-9.94913253 167.91278916 -9.54781353 167.63366995 -6.375 166.125 C-5.5809375 165.75632813 -4.786875 165.38765625 -3.96875 165.0078125 C-2.26431775 164.16085697 -0.57652775 163.27965405 1.09375 162.3671875 C2.34671875 161.69042969 2.34671875 161.69042969 3.625 161 C4.37910156 160.57203125 5.13320312 160.1440625 5.91015625 159.703125 C10.64162004 158.00286408 14.44468914 157.86315499 19.04614258 159.79003906 C21.7299747 161.19905722 24.33564263 162.6949986 26.9375 164.25 C28.71424209 165.28452651 30.49279872 166.31594501 32.2734375 167.34375 C33.43818604 168.03500977 33.43818604 168.03500977 34.62646484 168.74023438 C36.49412576 169.90414791 36.49412576 169.90414791 38.5625 169.75 C40.18278548 167.6137146 40.18278548 167.6137146 41.8125 164.875 C42.42738281 163.87855469 43.04226562 162.88210937 43.67578125 161.85546875 C44.60970703 160.31826172 44.60970703 160.31826172 45.5625 158.75 C46.15417969 157.79738281 46.74585938 156.84476563 47.35546875 155.86328125 C50.35555024 151.59722907 50.35555024 151.59722907 51.5625 146.75 C65.4225 144.77 65.4225 144.77 79.5625 142.75 C80.51274044 137.53290986 80.51274044 137.53290986 80.1875 132.69140625 C80.08953125 131.97533203 79.9915625 131.25925781 79.890625 130.52148438 C79.6724427 129.05264994 79.45369563 127.58389927 79.234375 126.11523438 C78.59600698 121.44086853 78.55971547 117.42570537 79.5625 112.75 C81.125 110.9375 81.125 110.9375 82.5625 109.75 C82.5625 109.09 82.5625 108.43 82.5625 107.75 C83.13613281 107.49089844 83.70976562 107.23179687 84.30078125 106.96484375 C86.75222216 105.64809397 88.65484822 104.14035287 90.75 102.3125 C91.44480469 101.71566406 92.13960937 101.11882812 92.85546875 100.50390625 C94.80110337 98.75928915 94.80110337 98.75928915 95.5625 95.75 C96.2225 95.42 96.8825 95.09 97.5625 94.75 C96.9025 93.76 96.2425 92.77 95.5625 91.75 C94.9025 91.75 94.2425 91.75 93.5625 91.75 C93.34980469 91.22921875 93.13710938 90.7084375 92.91796875 90.171875 C91.71567662 88.02368733 90.51843823 86.43231187 88.92578125 84.578125 C88.43142578 83.99546875 87.93707031 83.4128125 87.42773438 82.8125 C86.39526342 81.6073012 85.34830919 80.4143561 84.28710938 79.234375 C81.42798796 75.80793777 80.5502317 74.43702491 80.6328125 69.8125 C80.91716477 68.45274025 81.22769831 67.09822499 81.5625 65.75 C81.81903191 64.37075413 82.07033002 62.99052462 82.31640625 61.609375 C82.72007574 59.53786133 83.13139322 57.46800415 83.54492188 55.3984375 C84.18918469 52.08508589 84.5625 49.1438319 84.5625 45.75 C83.85641602 45.60377197 83.15033203 45.45754395 82.42285156 45.30688477 C79.21922615 44.6429305 76.01586098 43.97772885 72.8125 43.3125 C71.70132813 43.08240234 70.59015625 42.85230469 69.4453125 42.61523438 C68.37539062 42.39287109 67.30546875 42.17050781 66.203125 41.94140625 C64.72634277 41.63505249 64.72634277 41.63505249 63.21972656 41.32250977 C62.3428418 41.13358154 61.46595703 40.94465332 60.5625 40.75 C59.80678711 40.61327881 59.05107422 40.47655762 58.27246094 40.33569336 C57.70817383 40.14241455 57.14388672 39.94913574 56.5625 39.75 C55.5625 37.1875 55.5625 37.1875 54.5625 33.75 C53.31708492 31.03812215 51.93491201 28.39944404 50.5625 25.75 C48.0625 20.75 48.0625 20.75 45.5625 15.75 C42.16051138 16.33511962 39.26221735 17.19261423 36.12890625 18.6328125 C34.9078418 19.17615234 34.9078418 19.17615234 33.66210938 19.73046875 C31.97100174 20.49335487 30.28346318 21.26420264 28.59960938 22.04296875 C23.86743004 24.13036485 20.68427227 25.48583077 15.5625 23.75 C12.4140625 22.26171875 12.4140625 22.26171875 9.1875 20.4375 C4.36130979 17.75075493 -0.47836977 15.18094619 -5.4375 12.75 Z M4.5 174 C-11.07357251 181.43224455 -11.07357251 181.43224455 -18.4375 182.75 C-18.4375 182.09 -18.4375 181.43 -18.4375 180.75 C-19.0975 180.75 -19.7575 180.75 -20.4375 180.75 C-21.0975 178.44 -21.7575 176.13 -22.4375 173.75 C-23.0975 173.75 -23.7575 173.75 -24.4375 173.75 C-25.64887853 175.31210672 -25.64887853 175.31210672 -26.80078125 177.38671875 C-27.26935547 178.18182861 -27.73792969 178.97693848 -28.22070312 179.79614258 C-28.72537109 180.66779053 -29.23003906 181.53943848 -29.75 182.4375 C-30.82796991 184.26908756 -31.9074491 186.09978751 -32.98828125 187.9296875 C-33.83253662 189.36199707 -33.83253662 189.36199707 -34.69384766 190.82324219 C-38.07139463 196.49252713 -41.57746478 202.08249736 -45.0715332 207.68041992 C-47.96030793 212.32071011 -50.74546798 216.99315168 -53.4375 221.75 C-54.8603319 224.1755099 -56.30350628 226.58854354 -57.75 229 C-58.13591309 229.64678711 -58.52182617 230.29357422 -58.91943359 230.95996094 C-61.90346013 235.93538599 -65.0515501 240.78394015 -68.3203125 245.578125 C-68.87332031 246.65320313 -68.87332031 246.65320313 -69.4375 247.75 C-69.1075 248.74 -68.7775 249.73 -68.4375 250.75 C-67.4475 249.88375 -66.4575 249.0175 -65.4375 248.125 C-62.07608419 245.22414628 -58.56747225 242.606451 -54.94140625 240.046875 C-54.44511719 239.61890625 -53.94882813 239.1909375 -53.4375 238.75 C-53.4375 238.09 -53.4375 237.43 -53.4375 236.75 C-52.4165625 236.440625 -52.4165625 236.440625 -51.375 236.125 C-48.07307759 234.5794193 -45.84248385 232.64374951 -43.18359375 230.1875 C-40.27882416 227.79610132 -38.06778675 226.81302868 -34.3125 226.4375 C-32.889375 226.5921875 -32.889375 226.5921875 -31.4375 226.75 C-29.33359351 229.90585974 -29.16788037 230.83093488 -29.05859375 234.4609375 C-29.02443359 235.37617188 -28.99027344 236.29140625 -28.95507812 237.234375 C-28.92865234 238.18828125 -28.90222656 239.1421875 -28.875 240.125 C-28.81471551 242.00792841 -28.75102141 243.89075135 -28.68359375 245.7734375 C-28.65966553 246.60794434 -28.6357373 247.44245117 -28.61108398 248.30224609 C-28.43018694 250.85312337 -27.98978651 253.25539001 -27.4375 255.75 C-26.7775 255.09 -26.1175 254.43 -25.4375 253.75 C-25.4375 252.76 -25.4375 251.77 -25.4375 250.75 C-24.7775 250.75 -24.1175 250.75 -23.4375 250.75 C-23.06625 249.9146875 -23.06625 249.9146875 -22.6875 249.0625 C-21.4375 246.75 -21.4375 246.75 -19.6875 244.6875 C-16.95826186 241.12432798 -14.97849403 237.34166232 -12.90234375 233.37109375 C-11.56655691 230.98092582 -10.10475664 228.91378935 -8.4375 226.75 C-7.48030014 225.09965541 -6.52535333 223.44789215 -5.58984375 221.78515625 C-1.38617465 214.36104913 3.18716679 207.24673889 8.0234375 200.21875 C9.73884435 197.95199946 9.73884435 197.95199946 9.5625 195.75 C15.1875 194.625 15.1875 194.625 18.5625 195.75 C19.625 197.625 19.625 197.625 20.5625 199.75 C21.5525 201.235 21.5525 201.235 22.5625 202.75 C23.2225 202.75 23.8825 202.75 24.5625 202.75 C24.665625 203.4925 24.76875 204.235 24.875 205 C25.63407564 208.03630255 26.6419361 209.30965046 28.5625 211.75 C33.25394267 218.12727936 37.88491373 224.50372682 42.109375 231.203125 C45.13297101 235.99271515 48.18705263 240.7552023 51.375 245.4375 C51.93832031 246.26636719 52.50164062 247.09523438 53.08203125 247.94921875 C53.57058594 248.54347656 54.05914062 249.13773437 54.5625 249.75 C55.2225 249.75 55.8825 249.75 56.5625 249.75 C56.68625 250.554375 56.81 251.35875 56.9375 252.1875 C57.246875 253.4559375 57.246875 253.4559375 57.5625 254.75 C58.2225 255.08 58.8825 255.41 59.5625 255.75 C59.60008423 254.54670044 59.60008423 254.54670044 59.63842773 253.3190918 C59.75432043 249.69172926 59.87707751 246.06463083 60 242.4375 C60.03931641 241.17486328 60.07863281 239.91222656 60.11914062 238.61132812 C60.16103516 237.40283203 60.20292969 236.19433594 60.24609375 234.94921875 C60.30108032 233.27605591 60.30108032 233.27605591 60.35717773 231.5690918 C60.5625 228.75 60.5625 228.75 61.5625 225.75 C63.0425841 225.86362262 64.52160074 225.99122908 66 226.125 C66.82371094 226.19460938 67.64742187 226.26421875 68.49609375 226.3359375 C69.17800781 226.47257812 69.85992187 226.60921875 70.5625 226.75 C70.8925 227.41 71.2225 228.07 71.5625 228.75 C76.34939809 233.40864601 81.85712623 237.23993007 87.3125 241.0625 C88.06660156 241.59939453 88.82070312 242.13628906 89.59765625 242.68945312 C90.32339844 243.20056641 91.04914063 243.71167969 91.796875 244.23828125 C92.44881836 244.69759033 93.10076172 245.15689941 93.77246094 245.63012695 C95.67545647 246.91824628 95.67545647 246.91824628 98.5625 247.75 C97.22634186 244.12881779 95.60578117 241.04335574 93.5 237.8125 C91.36561041 234.5302034 89.24064307 231.24585066 87.171875 227.921875 C86.76976807 227.28113037 86.36766113 226.64038574 85.95336914 225.98022461 C85.1584218 224.71337304 84.36843862 223.4433913 83.58374023 222.17016602 C82.62977252 220.66184574 81.60222677 219.20053531 80.5625 217.75 C79.9025 217.75 79.2425 217.75 78.5625 217.75 C78.376875 216.96625 78.19125 216.1825 78 215.375 C76.32926078 211.16183154 74.02936569 207.94662782 71.375 204.296875 C69.27267495 201.34274583 67.42134459 198.28438691 65.60546875 195.1484375 C65.08919922 194.45621094 65.08919922 194.45621094 64.5625 193.75 C63.9025 193.75 63.2425 193.75 62.5625 193.75 C62.43488281 192.96689453 62.43488281 192.96689453 62.3046875 192.16796875 C61.27888434 188.82601004 59.51202136 186.01508564 57.6875 183.0625 C57.15962891 182.17208008 57.15962891 182.17208008 56.62109375 181.26367188 C54.40058817 177.56613683 54.40058817 177.56613683 50.5625 175.75 C48.48888016 177.75211571 46.69625903 179.53112159 45.1875 182 C43.5625 183.75 43.5625 183.75 40.75 184.1875 C36.24915773 183.56973734 33.02933677 181.63782226 29.1875 179.3125 C26.98585337 178.00199605 24.80068459 176.86844741 22.5 175.75 C20.18561052 174.6189074 18.31649683 173.56383544 16.25 172 C12.28953644 169.06632329 8.34402059 172.12224495 4.5 174 Z M99.5625 247.75 C100.5625 249.75 100.5625 249.75 100.5625 249.75 Z " fill="#1D1D1D" transform="translate(163.4375,39.25)"/>
<path d="M0 0 C0 0.66 0 1.32 0 2 C0.73734375 2.103125 1.4746875 2.20625 2.234375 2.3125 C10.28277913 4.31323323 17.74502926 12.90025855 23 19 C23 19.66 23 20.32 23 21 C23.66 21.33 24.32 21.66 25 22 C31.68278686 33.45926592 33.66048349 47.75976179 30.375 60.5625 C27.95582726 69.07206437 25.59764958 75.92321749 19 82 C18.61714844 82.93392578 18.61714844 82.93392578 18.2265625 83.88671875 C13.8031146 91.50800957 0.26333227 96.22344067 -7.87036133 98.53051758 C-20.83028526 101.38755458 -34.52143777 99.0425366 -45.81640625 92.3984375 C-52.96402343 87.82089376 -52.96402343 87.82089376 -56 85 C-56 84.34 -56 83.68 -56 83 C-56.66 83 -57.32 83 -58 83 C-59.5078125 81.1015625 -59.5078125 81.1015625 -61.125 78.625 C-61.66382813 77.81289062 -62.20265625 77.00078125 -62.7578125 76.1640625 C-64 74 -64 74 -64 72 C-64.66 71.67 -65.32 71.34 -66 71 C-71.66412474 60.49863004 -72.19215458 45.45601049 -69.08203125 34.07421875 C-65.43390025 24.02710068 -59.74368773 16.2374418 -52 9 C-51.52175781 8.49210937 -51.04351562 7.98421875 -50.55078125 7.4609375 C-37.04160596 -5.26559036 -16.6064616 -4.1516154 0 0 Z M-43 18 C-44.03125 18.721875 -45.0625 19.44375 -46.125 20.1875 C-53.88973107 26.87026035 -57.39214054 37.22808265 -58.1640625 47.09765625 C-58.57747189 57.75234377 -54.65277841 66.71846776 -47.6875 74.625 C-37.79945514 83.3632722 -28.41390076 87.79293995 -15 87 C-5.44534159 86.10155111 3.54238794 81.08827106 10 74.0625 C17.12875797 65.06049176 19.83428818 55.3960215 19 44 C18.00751084 35.69663997 14.38130376 28.3858138 9 22 C8.34 22 7.68 22 7 22 C7 21.34 7 20.68 7 20 C6.34 20 5.68 20 5 20 C4.505 19.01 4.505 19.01 4 18 C-10.69958716 7.07182207 -28.28830478 7.39611578 -43 18 Z " fill="#1C1C1C" transform="translate(199,84)"/>
<path d="M0 0 C0.33 0.66 0.66 1.32 1 2 C1.66 2.33 2.32 2.66 3 3 C3.81640625 5.14453125 3.81640625 5.14453125 4.5625 7.8125 C4.81128906 8.68519531 5.06007812 9.55789062 5.31640625 10.45703125 C5.90103675 12.63185672 6.45380144 14.81520578 7 17 C13.27 17.33 19.54 17.66 26 18 C24.69812562 21.90562315 22.92403349 22.691951 19.5625 25 C15.25342199 27.96513762 15.25342199 27.96513762 12 32 C12.67570446 34.63524738 13.42593689 37.02926842 14.375 39.5625 C17 46.82910156 17 46.82910156 17 49 C13.08741877 48.41901346 10.91519241 46.51509464 7.9375 44 C4.30384196 40.91442409 4.30384196 40.91442409 0 39 C-2.31224384 40.57586045 -4.41642963 42.15973213 -6.5625 43.9375 C-12.76355422 49 -12.76355422 49 -15 49 C-16.12721166 46.18197085 -16.0097206 45.02943839 -15.0390625 42.08984375 C-14.57242188 41.04957031 -14.10578125 40.00929687 -13.625 38.9375 C-11.66878897 34.52470828 -11.66878897 34.52470828 -10 30 C-10.5775 29.71125 -11.155 29.4225 -11.75 29.125 C-13.83333333 28.08333333 -15.91666667 27.04166667 -18 26 C-18 25.34 -18 24.68 -18 24 C-19.98 23.34 -21.96 22.68 -24 22 C-24.33 20.35 -24.66 18.7 -25 17 C-18.73 17 -12.46 17 -6 17 C-5.38125 14.9375 -4.7625 12.875 -4.125 10.75 C-2.99640115 6.98800385 -1.89499785 3.44855464 0 0 Z " fill="#212121" transform="translate(179,108)"/>
<path d="M0 0 C3.125 -0.1875 3.125 -0.1875 6 0 C5.01 0.33 4.02 0.66 3 1 C3 1.66 3 2.32 3 3 C2.01 3.66 1.02 4.32 0 5 C-0.51104922 7.80810144 -0.51104922 7.80810144 -0.51171875 11.1015625 C-0.56489258 12.91914063 -0.56489258 12.91914063 -0.61914062 14.7734375 C-0.64169922 16.04445313 -0.66425781 17.31546875 -0.6875 18.625 C-0.72166016 19.90375 -0.75582031 21.1825 -0.79101562 22.5 C-0.87372479 25.66657932 -0.94280085 28.83287364 -1 32 C-1.99 31.67 -2.98 31.34 -4 31 C-3.67 30.34 -3.34 29.68 -3 29 C-2.86991272 27.07686718 -2.7974195 25.14969261 -2.75390625 23.22265625 C-2.72103516 22.06958984 -2.68816406 20.91652344 -2.65429688 19.72851562 C-2.59319908 17.28850379 -2.53589479 14.84839396 -2.48242188 12.40820312 C-2.43118164 10.67666992 -2.43118164 10.67666992 -2.37890625 8.91015625 C-2.3538501 7.84933838 -2.32879395 6.78852051 -2.30297852 5.69555664 C-2 3 -2 3 0 0 Z " fill="#686868" transform="translate(225,265)"/>
<path d="M0 0 C0.66 0.33 1.32 0.66 2 1 C2 1.99 2 2.98 2 4 C-0.3125 5.5625 -0.3125 5.5625 -3 7 C-3.99 7.66 -4.98 8.32 -6 9 C-5.37344168 6.07606119 -4.5838192 3.55170871 -3 1 C-2.01 0.67 -1.02 0.34 0 0 Z " fill="#2C2C2C" transform="translate(132,204)"/>
<path d="M0 0 C6.6 0 13.2 0 20 0 C20 0.66 20 1.32 20 2 C14.39 2 8.78 2 3 2 C2.67 2.99 2.34 3.98 2 5 C1.34 4.34 0.68 3.68 0 3 C0 2.01 0 1.02 0 0 Z " fill="#C4C4C4" transform="translate(154,125)"/>
<path d="M0 0 C1.8871875 0.0309375 1.8871875 0.0309375 3.8125 0.0625 C3.8125 0.3925 3.8125 0.7225 3.8125 1.0625 C3.22082031 1.16046875 2.62914062 1.2584375 2.01953125 1.359375 C-3.05792139 2.32019801 -6.36263744 3.3610201 -10.1875 7.0625 C-10.1875 4.0625 -10.1875 4.0625 -8.875 2.4375 C-6.05339115 0.13841131 -3.4967371 -0.05732356 0 0 Z " fill="#797979" transform="translate(224.1875,183.9375)"/>
<path d="M0 0 C0.66 0 1.32 0 2 0 C2 0.99 2 1.98 2 3 C-1.33333333 6 -1.33333333 6 -4 6 C-4.66 7.32 -5.32 8.64 -6 10 C-6.99 9.67 -7.98 9.34 -9 9 C-7.37660195 7.29115995 -5.70680947 5.62553283 -4 4 C-3.34 4 -2.68 4 -2 4 C-1.34 2.68 -0.68 1.36 0 0 Z " fill="#5D5D5D" transform="translate(211,154)"/>
<path d="M0 0 C1 2 1 2 1 6 C-3 10 -3 10 -6 11 C-6 8 -6 8 -4.125 6.0625 C-3.42375 5.381875 -2.7225 4.70125 -2 4 C-0.76487921 1.86690808 -0.76487921 1.86690808 0 0 Z " fill="#787878" transform="translate(147,277)"/>
<path d="M0 0 C0.66 0.33 1.32 0.66 2 1 C-0.31 3.64 -2.62 6.28 -5 9 C-5.99 8.67 -6.98 8.34 -8 8 C-7.34 6.35 -6.68 4.7 -6 3 C-5.01 3 -4.02 3 -3 3 C-1.31201173 1.56249809 -1.31201173 1.56249809 0 0 Z " fill="#868686" transform="translate(99,285)"/>
<path d="M0 0 C2.31 0 4.62 0 7 0 C7.33 0.99 7.66 1.98 8 3 C5.6875 3.625 5.6875 3.625 3 4 C2.01 3.34 1.02 2.68 0 2 C0 1.34 0 0.68 0 0 Z " fill="#030303" transform="translate(157,127)"/>
<path d="M0 0 C0.8125 1.625 0.8125 1.625 1 4 C-0.46818136 6.24609835 -2.15852858 8.02378677 -4 10 C-4 7.37886292 -3.68707555 5.49064888 -3 3 C-2.34 3 -1.68 3 -1 3 C-0.67 2.01 -0.34 1.02 0 0 Z " fill="#666666" transform="translate(105,245)"/>
<path d="M0 0 C0 0.99 0 1.98 0 3 C-0.66 3.66 -1.32 4.32 -2 5 C-2.28875 5.680625 -2.5775 6.36125 -2.875 7.0625 C-4 9 -4 9 -6.125 9.75 C-7.053125 9.87375 -7.053125 9.87375 -8 10 C-5.83735988 6.01618925 -3.28788824 3.11016455 0 0 Z " fill="#464646" transform="translate(146,94)"/>
<path d="M0 0 C2.475 0.99 2.475 0.99 5 2 C4.67 3.98 4.34 5.96 4 8 C2.35 6.35 0.7 4.7 -1 3 C-0.67 2.01 -0.34 1.02 0 0 Z " fill="#474747" transform="translate(210,107)"/>
<path d="M0 0 C1.32 0.66 2.64 1.32 4 2 C1.94766315 4.2477975 0.99332739 5.0022242 -2 6 C-1.125 1.125 -1.125 1.125 0 0 Z " fill="#4D4D4D" transform="translate(112,287)"/>
<path d="M0 0 C1.9375 0.3125 1.9375 0.3125 4 1 C4.33 1.99 4.66 2.98 5 4 C4.34 4 3.68 4 3 4 C2.67 4.66 2.34 5.32 2 6 C2 5.34 2 4.68 2 4 C1.34 3.67 0.68 3.34 0 3 C0 2.01 0 1.02 0 0 Z " fill="#636363" transform="translate(215,67)"/>
<path d="M0 0 C0.33 0 0.66 0 1 0 C1 1.65 1 3.3 1 5 C1.66 5.33 2.32 5.66 3 6 C1.02 6.99 1.02 6.99 -1 8 C-1.93065133 5.39417629 -2.14917407 4.35801776 -1.0625 1.75 C-0.711875 1.1725 -0.36125 0.595 0 0 Z " fill="#A0A0A0" transform="translate(165,149)"/>
<path d="" fill="#FFFFFF" transform="translate(0,0)"/>
<path d="" fill="#FFFFFF" transform="translate(0,0)"/>
<path d="" fill="#FFFFFF" transform="translate(0,0)"/>
<path d="" fill="#FFFFFF" transform="translate(0,0)"/>
<path d="" fill="#DFDFDF" transform="translate(0,0)"/>
<path d="" fill="#DFDFDF" transform="translate(0,0)"/>
<path d="" fill="#DBDBDB" transform="translate(0,0)"/>
<path d="" fill="#FFFFFF" transform="translate(0,0)"/>
<path d="" fill="#FFFFFF" transform="translate(0,0)"/>
<path d="" fill="#E8E8E8" transform="translate(0,0)"/>
<path d="" fill="#FFFFFF" transform="translate(0,0)"/>
<path d="" fill="#FFFFFF" transform="translate(0,0)"/>
<path d="" fill="#DFDFDF" transform="translate(0,0)"/>
<path d="" fill="#FFFFFF" transform="translate(0,0)"/>
<path d="" fill="#FFFFFF" transform="translate(0,0)"/>
<path d="" fill="#FFFFFF" transform="translate(0,0)"/>
<path d="" fill="#DFDFDF" transform="translate(0,0)"/>
<path d="" fill="#FFFFFF" transform="translate(0,0)"/>
<path d="" fill="#FFFFFF" transform="translate(0,0)"/>
<path d="" fill="#FFFFFF" transform="translate(0,0)"/>
<path d="" fill="#FFFFFF" transform="translate(0,0)"/>
<path d="" fill="#FFFFFF" transform="translate(0,0)"/>
<path d="" fill="#FFFFFF" transform="translate(0,0)"/>
<path d="" fill="#E3E3E3" transform="translate(0,0)"/>
<path d="" fill="#FFFFFF" transform="translate(0,0)"/>
<path d="" fill="#FFFFFF" transform="translate(0,0)"/>
<path d="" fill="#FFFFFF" transform="translate(0,0)"/>
<path d="" fill="#DFDFDF" transform="translate(0,0)"/>
<path d="" fill="#FFFFFF" transform="translate(0,0)"/>
<path d="" fill="#FFFFFF" transform="translate(0,0)"/>
<path d="" fill="#FFFFFF" transform="translate(0,0)"/>
<path d="" fill="#E6E6E6" transform="translate(0,0)"/>
<path d="" fill="#FFFFFF" transform="translate(0,0)"/>
<path d="" fill="#FFFFFF" transform="translate(0,0)"/>
<path d="" fill="#EAEAEA" transform="translate(0,0)"/>
<path d="" fill="#FFFFFF" transform="translate(0,0)"/>
<path d="" fill="#FFFFFF" transform="translate(0,0)"/>
<path d="" fill="#FFFFFF" transform="translate(0,0)"/>
<path d="" fill="#FFFFFF" transform="translate(0,0)"/>
<path d="" fill="#E6E6E6" transform="translate(0,0)"/>
<path d="" fill="#FFFFFF" transform="translate(0,0)"/>
<path d="" fill="#E3E3E3" transform="translate(0,0)"/>
<path d="" fill="#FFFFFF" transform="translate(0,0)"/>
<path d="" fill="#FFFFFF" transform="translate(0,0)"/>
<path d="" fill="#DFDFDF" transform="translate(0,0)"/>
<path d="" fill="#E4E4E4" transform="translate(0,0)"/>
<path d="" fill="#FFFFFF" transform="translate(0,0)"/>
<path d="" fill="#FFFFFF" transform="translate(0,0)"/>
<path d="" fill="#FFFFFF" transform="translate(0,0)"/>
<path d="" fill="#FFFFFF" transform="translate(0,0)"/>
<path d="" fill="#FFFFFF" transform="translate(0,0)"/>
<path d="" fill="#FFFFFF" transform="translate(0,0)"/>
<path d="" fill="#FFFFFF" transform="translate(0,0)"/>
<path d="" fill="#E8E8E8" transform="translate(0,0)"/>
<path d="" fill="#D5D5D5" transform="translate(0,0)"/>
<path d="" fill="#EAEAEA" transform="translate(0,0)"/>
<path d="" fill="#FFFFFF" transform="translate(0,0)"/>
<path d="" fill="#E3E3E3" transform="translate(0,0)"/>
<path d="" fill="#DBDBDB" transform="translate(0,0)"/>
<path d="" fill="#FFFFFF" transform="translate(0,0)"/>
<path d="" fill="#FFFFFF" transform="translate(0,0)"/>
<path d="" fill="#FFFFFF" transform="translate(0,0)"/>
<path d="" fill="#FFFFFF" transform="translate(0,0)"/>
<path d="" fill="#FFFFFF" transform="translate(0,0)"/>
<path d="" fill="#FFFFFF" transform="translate(0,0)"/>
<path d="" fill="#FFFFFF" transform="translate(0,0)"/>
<path d="" fill="#FFFFFF" transform="translate(0,0)"/>
<path d="" fill="#FFFFFF" transform="translate(0,0)"/>
<path d="" fill="#FFFFFF" transform="translate(0,0)"/>
<path d="" fill="#FFFFFF" transform="translate(0,0)"/>
<path d="" fill="#DFDFDF" transform="translate(0,0)"/>
<path d="" fill="#EAEAEA" transform="translate(0,0)"/>
<path d="" fill="#FFFFFF" transform="translate(0,0)"/>
<path d="" fill="#FFFFFF" transform="translate(0,0)"/>
<path d="" fill="#E3E3E3" transform="translate(0,0)"/>
<path d="" fill="#FFFFFF" transform="translate(0,0)"/>
<path d="" fill="#DFDFDF" transform="translate(0,0)"/>
<path d="" fill="#FFFFFF" transform="translate(0,0)"/>
<path d="" fill="#FFFFFF" transform="translate(0,0)"/>
<path d="" fill="#CCCCCC" transform="translate(0,0)"/>
<path d="" fill="#FFFFFF" transform="translate(0,0)"/>
<path d="" fill="#E3E3E3" transform="translate(0,0)"/>
<path d="" fill="#FFFFFF" transform="translate(0,0)"/>
<path d="" fill="#FFFFFF" transform="translate(0,0)"/>
<path d="" fill="#E8E8E8" transform="translate(0,0)"/>
<path d="" fill="#FFFFFF" transform="translate(0,0)"/>
<path d="" fill="#FFFFFF" transform="translate(0,0)"/>
<path d="" fill="#FFFFFF" transform="translate(0,0)"/>
<path d="" fill="#FFFFFF" transform="translate(0,0)"/>
<path d="" fill="#FFFFFF" transform="translate(0,0)"/>
<path d="" fill="#FFFFFF" transform="translate(0,0)"/>
<path d="" fill="#FFFFFF" transform="translate(0,0)"/>
<path d="" fill="#FFFFFF" transform="translate(0,0)"/>
<path d="" fill="#E6E6E6" transform="translate(0,0)"/>
<path d="" fill="#FFFFFF" transform="translate(0,0)"/>
<path d="" fill="#DFDFDF" transform="translate(0,0)"/>
<path d="" fill="#FFFFFF" transform="translate(0,0)"/>
<path d="" fill="#FFFFFF" transform="translate(0,0)"/>
<path d="" fill="#E3E3E3" transform="translate(0,0)"/>
<path d="" fill="#FFFFFF" transform="translate(0,0)"/>
<path d="" fill="#FFFFFF" transform="translate(0,0)"/>
<path d="" fill="#FFFFFF" transform="translate(0,0)"/>
<path d="" fill="#FFFFFF" transform="translate(0,0)"/>
<path d="" fill="#FFFFFF" transform="translate(0,0)"/>
<path d="" fill="#FFFFFF" transform="translate(0,0)"/>
<path d="" fill="#FFFFFF" transform="translate(0,0)"/>
<path d="" fill="#FFFFFF" transform="translate(0,0)"/>
<path d="" fill="#FFFFFF" transform="translate(0,0)"/>
<path d="" fill="#FFFFFF" transform="translate(0,0)"/>
<path d="" fill="#EDEDED" transform="translate(0,0)"/>
<path d="" fill="#E8E8E8" transform="translate(0,0)"/>
</svg>
