<?xml version="1.0" encoding="UTF-8"?>
<svg version="1.1" xmlns="http://www.w3.org/2000/svg" width="500" height="500">
<path d="M0 0 C2.9029121 0.97135701 5.76739742 2.0173803 8.63232422 3.09570312 C10.23575684 3.68774536 10.23575684 3.68774536 11.87158203 4.29174805 C15.44535021 5.62332771 19.00934275 6.97912188 22.56982422 8.34570312 C23.22480896 8.59652649 23.8797937 8.84734985 24.55462646 9.10577393 C28.65021189 10.6766278 32.73879724 12.26431721 36.82028198 13.87145996 C38.14495859 14.39266939 39.47057362 14.91150055 40.79714966 15.42785645 C42.66769899 16.15820433 44.5329344 16.90211715 46.39794922 17.64648438 C47.46948242 18.07098877 48.54101562 18.49549316 49.64501953 18.93286133 C52.84367487 20.47798808 55.14445105 21.72989656 57.56982422 24.34570312 C57.96289062 27.6862793 57.96289062 27.6862793 57.67138672 31.63867188 C57.60323368 33.08846061 57.53688565 34.5383351 57.47216797 35.98828125 C57.3424826 38.25728589 57.1957319 40.52184729 57.01464844 42.78735352 C56.14115785 52.06906811 56.14115785 52.06906811 59.87182617 60.2512207 C62.66873667 62.53239881 65.51322608 64.43341519 68.56982422 66.34570312 C70.24291431 67.75138558 71.89338816 69.18498081 73.50732422 70.65820312 C74.71582031 71.75841797 74.71582031 71.75841797 75.94873047 72.88085938 C78.99189457 75.7426128 81.98159401 78.65147088 84.94482422 81.59570312 C85.4448999 82.09110596 85.94497559 82.58650879 86.46020508 83.09692383 C88.6633033 85.30969618 90.58640446 87.37171663 92.26953125 90.01245117 C94.43073159 92.6891714 94.43073159 92.6891714 97.98974609 92.75805664 C99.3408719 92.68854801 100.69080652 92.59248485 102.03857422 92.47460938 C103.11455872 92.41647316 103.11455872 92.41647316 104.21228027 92.35716248 C106.50038489 92.23197633 108.78429207 92.07351799 111.06982422 91.90820312 C113.35527351 91.74818799 115.63978865 91.59613938 117.92736816 91.46995544 C119.34879739 91.39125878 120.76931797 91.29312919 122.18786621 91.17323303 C125.28424588 90.99886542 127.16647115 91.0783743 129.78149414 92.81152344 C132.2488576 96.30793746 133.9374101 99.97771248 135.65185547 103.88867188 C136.21775642 105.15146721 136.21775642 105.15146721 136.79508972 106.43977356 C137.99944156 109.13383987 139.19073383 111.83347221 140.38232422 114.53320312 C141.17125206 116.29852842 141.96095866 118.06350591 142.75146484 119.828125 C144.68274433 124.15159225 146.58713309 128.48609619 148.47418213 132.82904053 C149.20148439 134.4996357 149.93318155 136.16832476 150.66937256 137.83502197 C151.69527201 140.16241905 152.7032954 142.49675021 153.70654297 144.83398438 C154.0134053 145.52260056 154.32026764 146.21121674 154.63642883 146.92070007 C156.27105782 150.79402777 156.95542391 153.31756361 155.56982422 157.34570312 C155.23982422 158.00570312 154.90982422 158.66570312 154.56982422 159.34570312 C153.90982422 159.34570312 153.24982422 159.34570312 152.56982422 159.34570312 C152.56982422 160.00570312 152.56982422 160.66570312 152.56982422 161.34570312 C151.10107422 162.79101563 151.10107422 162.79101563 149.06982422 164.47070312 C145.28036871 167.68130752 141.78571643 171.08020793 138.33154297 174.64648438 C136.56982422 176.34570313 136.56982422 176.34570313 133.56982422 178.34570312 C133.67593018 179.52773315 133.67593018 179.52773315 133.78417969 180.73364258 C134.55361274 190.18522843 134.72462127 199.56695697 134.70019531 209.04516602 C134.69474925 211.56792989 134.70022087 214.09052215 134.70654297 216.61328125 C134.70588352 218.22591185 134.70460512 219.83854234 134.70263672 221.45117188 C134.70466095 222.20109909 134.70668518 222.95102631 134.70877075 223.72367859 C134.69451807 226.86776187 134.5717182 229.34002117 133.56982422 232.34570312 C134.12154297 232.57902344 134.67326172 232.81234375 135.24169922 233.05273438 C138.18237689 234.68589597 140.36059673 236.7390952 142.81982422 239.03320312 C146.81572055 242.73489022 150.85328267 246.35478335 155.01123047 249.87304688 C156.56982422 251.34570312 156.56982422 251.34570312 158.56982422 254.34570312 C158.23706255 259.77150917 156.62902669 264.44294647 154.69091797 269.45507812 C154.40296356 270.21606308 154.11500916 270.97704803 153.81832886 271.76109314 C152.8891762 274.20904044 151.94902286 276.65255742 151.00732422 279.09570312 C150.36616399 280.77119113 149.72513233 282.44672834 149.08422852 284.12231445 C145.75973262 292.78853198 142.41924593 301.4511333 138.88232422 310.03320312 C138.58060303 310.77860352 138.27888184 311.52400391 137.96801758 312.29199219 C136.50721835 315.74471385 135.77275367 317.21041682 132.56982422 319.34570312 C129.95573277 319.51716127 127.45112748 319.57803744 124.83935547 319.54101562 C124.08893478 319.53818573 123.3385141 319.53535583 122.56535339 319.53244019 C120.17084747 319.52125374 117.77671691 319.4961524 115.38232422 319.47070312 C113.75798067 319.46067132 112.13363124 319.45154582 110.50927734 319.44335938 C106.52931522 319.42131949 102.54963334 319.38680053 98.56982422 319.34570312 C98.27849609 320.11551514 97.98716797 320.88532715 97.68701172 321.6784668 C96.38453349 324.78807664 94.68262857 327.03661684 92.56982422 329.65820312 C91.86857422 330.54121094 91.16732422 331.42421875 90.44482422 332.33398438 C89.82607422 332.99785156 89.20732422 333.66171875 88.56982422 334.34570312 C87.90982422 334.34570312 87.24982422 334.34570312 86.56982422 334.34570312 C86.34423828 334.89613281 86.11865234 335.4465625 85.88623047 336.01367188 C84.16699572 339.05931919 81.98651903 341.19295596 79.50732422 343.65820312 C78.60884766 344.56183594 77.71037109 345.46546875 76.78466797 346.39648438 C74.97835765 348.19949577 73.40746218 349.43684101 71.16723633 350.69433594 C68.35263999 352.37428359 66.52939863 353.70176365 64.56982422 356.34570312 C63.83315706 361.82089043 64.53343288 367.02186359 65.25732422 372.47070312 C65.51937995 374.6534562 65.76720072 376.83582129 65.9901886 379.0229187 C66.19603936 381.00250642 66.44562338 382.97740199 66.69750977 384.95166016 C66.53878478 389.17077054 65.60793568 390.47551637 62.56982422 393.34570312 C60.10986328 394.85620117 60.10986328 394.85620117 57.33544922 396.10742188 C56.29710937 396.58211914 55.25876953 397.05681641 54.18896484 397.54589844 C53.07714844 398.03670898 51.96533203 398.52751953 50.81982422 399.03320312 C49.67707031 399.54850586 48.53431641 400.06380859 47.35693359 400.59472656 C37.33996188 405.08006106 27.24571385 409.39182088 17.10107422 413.58007812 C16.2715625 413.92264648 15.44205078 414.26521484 14.58740234 414.61816406 C12.56982422 415.34570312 12.56982422 415.34570312 10.56982422 415.34570312 C10.58553467 416.41941162 10.60124512 417.49312012 10.61743164 418.59936523 C10.67212376 422.61930712 10.7063158 426.63921675 10.73461914 430.65942383 C10.74961691 432.39255319 10.77002194 434.12564517 10.79614258 435.85864258 C10.83292625 438.36353837 10.84964073 440.86792833 10.86279297 443.37304688 C10.87827682 444.13592514 10.89376068 444.89880341 10.90971375 445.68479919 C10.91223292 453.91280571 8.52478924 461.11179694 3.38232422 467.55273438 C-2.39487908 473.26768333 -9.11148775 475.45988279 -17.06719971 475.45899963 C-17.79026306 475.45383835 -18.51332642 475.44867706 -19.25830078 475.44335938 C-20.00730652 475.44194443 -20.75631226 475.44052948 -21.52801514 475.43907166 C-23.9121099 475.43348972 -26.29610956 475.42094058 -28.68017578 475.40820312 C-30.29996609 475.40318579 -31.91975787 475.39862329 -33.53955078 475.39453125 C-37.5031289 475.3835262 -41.46663623 475.36627403 -45.43017578 475.34570312 C-45.39537109 476.65925781 -45.36056641 477.9728125 -45.32470703 479.32617188 C-45.29656112 481.06183614 -45.26926182 482.79751427 -45.24267578 484.53320312 C-45.21753906 485.39751953 -45.19240234 486.26183594 -45.16650391 487.15234375 C-45.06966164 495.57762091 -45.06966164 495.57762091 -48.43017578 499.34570312 C-52.8210969 499.89456826 -54.71518456 499.82236394 -58.43017578 497.34570312 C-59.37154833 494.52158548 -59.5474296 492.81652281 -59.52783203 489.89648438 C-59.52460938 489.04892578 -59.52138672 488.20136719 -59.51806641 487.328125 C-59.5096875 486.44705078 -59.50130859 485.56597656 -59.49267578 484.65820312 C-59.48816406 483.76552734 -59.48365234 482.87285156 -59.47900391 481.953125 C-59.46722561 479.75058326 -59.45077742 477.54817713 -59.43017578 475.34570312 C-60.41824219 475.36141357 -61.40630859 475.37712402 -62.42431641 475.39331055 C-66.12182325 475.44798166 -69.81929502 475.48218704 -73.51708984 475.51049805 C-75.11155219 475.52550058 -76.70597386 475.54590934 -78.30029297 475.57202148 C-80.60410656 475.60878447 -82.90737038 475.62551467 -85.21142578 475.63867188 C-85.91384399 475.65415573 -86.61626221 475.66963959 -87.33996582 475.68559265 C-95.87072267 475.68843489 -103.36309271 472.34796694 -109.43017578 466.34570312 C-114.69652292 458.95456741 -115.58454076 452.39408316 -115.52783203 443.54492188 C-115.52570961 442.29035942 -115.52570961 442.29035942 -115.52354431 441.01045227 C-115.51796762 438.35133213 -115.50541943 435.69229762 -115.49267578 433.03320312 C-115.48765777 431.22526164 -115.48309539 429.41731882 -115.47900391 427.609375 C-115.46800582 423.18811828 -115.45075728 418.7669252 -115.43017578 414.34570312 C-116.17388428 414.20849854 -116.91759277 414.07129395 -117.68383789 413.92993164 C-120.02651141 413.43157466 -122.13131997 412.82476678 -124.37158203 411.99804688 C-125.11085937 411.72645752 -125.85013672 411.45486816 -126.61181641 411.17504883 C-127.3975 410.88073975 -128.18318359 410.58643066 -128.99267578 410.28320312 C-129.81316406 409.97664795 -130.63365234 409.67009277 -131.47900391 409.35424805 C-134.13172607 408.35746912 -136.78094352 407.3517166 -139.43017578 406.34570312 C-140.35169434 405.99991211 -141.27321289 405.65412109 -142.22265625 405.29785156 C-144.9640532 404.26522203 -147.69782001 403.21449401 -150.43017578 402.15820312 C-151.28426025 401.83779053 -152.13834473 401.51737793 -153.01831055 401.18725586 C-153.81422607 400.87473877 -154.6101416 400.56222168 -155.43017578 400.24023438 C-156.48205078 399.83575073 -156.48205078 399.83575073 -157.55517578 399.4230957 C-159.94247396 398.05133179 -161.03968117 396.71707892 -162.43017578 394.34570312 C-162.78662109 392.15429688 -162.78662109 392.15429688 -162.75830078 389.78320312 C-162.75378906 388.90881592 -162.74927734 388.03442871 -162.74462891 387.13354492 C-162.72335938 386.21355713 -162.70208984 385.29356934 -162.68017578 384.34570312 C-162.66374023 382.93961792 -162.66374023 382.93961792 -162.64697266 381.50512695 C-162.53971034 374.75401333 -162.20815746 368.05579506 -161.43017578 361.34570312 C-162.00509766 361.07886719 -162.58001953 360.81203125 -163.17236328 360.53710938 C-173.68896667 354.98769063 -186.5967578 344.04703152 -192.95751953 333.91210938 C-196.01323699 329.03471633 -196.01323699 329.03471633 -201.05908203 326.74023438 C-204.56233455 326.71786367 -207.94326144 326.99460217 -211.43017578 327.34570312 C-214.03184881 327.55886217 -216.63307652 327.74993824 -219.23803711 327.91845703 C-221.00653449 328.03489206 -222.77368735 328.17450351 -224.53833008 328.33935547 C-225.35857666 328.39816895 -226.17882324 328.45698242 -227.02392578 328.51757812 C-227.75289062 328.58041992 -228.48185547 328.64326172 -229.23291016 328.70800781 C-232.52497891 328.16518225 -234.06636963 326.6548825 -236.43017578 324.34570312 C-238.01660156 321.64208984 -238.01660156 321.64208984 -239.37548828 318.52539062 C-239.89014648 317.36193115 -240.40480469 316.19847168 -240.93505859 314.99975586 C-241.47554893 313.74026518 -242.01557778 312.48057637 -242.55517578 311.22070312 C-243.12026523 309.92738218 -243.686359 308.63449963 -244.25341797 307.34204102 C-245.70972215 304.01139367 -247.14778979 300.6732323 -248.57897949 297.33172607 C-249.41230277 295.38740469 -250.24928651 293.44470108 -251.08740234 291.50244141 C-253.54088396 285.81226882 -255.97749283 280.11479607 -258.38330078 274.40429688 C-258.94259277 273.07869751 -258.94259277 273.07869751 -259.51318359 271.72631836 C-261.10627456 267.59047436 -261.10627456 267.59047436 -261.43017578 265.34570312 C-259.01579415 260.12153244 -255.97810202 256.59461036 -251.61767578 252.84570312 C-251.09085205 252.3692334 -250.56402832 251.89276367 -250.02124023 251.40185547 C-247.76017461 249.35693898 -245.48304136 247.38587401 -243.05517578 245.54101562 C-241.00885574 243.88250623 -239.75752021 242.6227341 -238.43017578 240.34570312 C-238.35701377 237.76392629 -238.35701377 237.76392629 -238.81298828 234.87304688 C-239.40304356 229.08139017 -239.34667021 223.55694693 -239.03564453 217.74804688 C-238.93084432 215.14364479 -238.83331116 212.53903905 -238.73657227 209.93432617 C-238.6571743 208.16393098 -238.55453611 206.39442858 -238.42895508 204.62670898 C-237.49929261 194.58534453 -237.49929261 194.58534453 -240.76065063 185.38131714 C-244.00196971 181.85752652 -247.70588784 179.11085611 -251.70063782 176.49876404 C-254.18526132 174.84229722 -256.45183432 172.94483445 -258.74267578 171.03320312 C-259.44005859 170.48019531 -260.13744141 169.9271875 -260.85595703 169.35742188 C-263.14651223 166.43028558 -263.17284281 164.02665263 -263.43017578 160.34570312 C-262.60083008 157.01025391 -262.60083008 157.01025391 -261.25439453 153.54101562 C-261.01365204 152.90773346 -260.77290955 152.27445129 -260.52487183 151.62197876 C-259.73823765 149.565064 -258.92890748 147.51802785 -258.11767578 145.47070312 C-257.56507656 144.04697034 -257.01357342 142.62281168 -256.46313477 141.19824219 C-255.34322855 138.30846179 -254.21323526 135.42291656 -253.07568359 132.54003906 C-251.54209639 128.64670856 -250.05671894 124.73699337 -248.57861328 120.82226562 C-247.71793014 118.57958032 -246.85602476 116.33736354 -245.99267578 114.09570312 C-245.60490967 113.06203613 -245.21714355 112.02836914 -244.81762695 110.96337891 C-244.25652222 109.53614502 -244.25652222 109.53614502 -243.68408203 108.08007812 C-243.36769775 107.25733398 -243.05131348 106.43458984 -242.7253418 105.58691406 C-241.00117726 102.60334564 -239.38294428 101.13418428 -236.43017578 99.34570312 C-233.09960938 99.11376953 -233.09960938 99.11376953 -229.32861328 99.44726562 C-227.94292607 99.53921123 -226.55691471 99.62637256 -225.1706543 99.70922852 C-224.45612091 99.75516144 -223.74158752 99.80109436 -223.00540161 99.84841919 C-211.05532256 100.96985306 -211.05532256 100.96985306 -200.47314453 96.84179688 C-198.11745831 94.00027957 -196.48354296 90.75966656 -194.77294922 87.50292969 C-192.08093572 83.17808764 -188.26231778 79.8021546 -184.61767578 76.28320312 C-183.89845947 75.5697876 -183.17924316 74.85637207 -182.43823242 74.12133789 C-171.50940773 63.34570312 -171.50940773 63.34570312 -168.43017578 63.34570312 C-168.76017578 62.35570312 -169.09017578 61.36570313 -169.43017578 60.34570312 C-169.96587288 55.73321984 -170.27238347 51.10086443 -170.61767578 46.47070312 C-170.7253125 45.19066406 -170.83294922 43.910625 -170.94384766 42.59179688 C-171.03601563 41.35816406 -171.12818359 40.12453125 -171.22314453 38.85351562 C-171.31104248 37.72574707 -171.39894043 36.59797852 -171.48950195 35.43603516 C-171.42522774 32.08795694 -171.15469671 30.21654838 -169.43017578 27.34570312 C-166.87768555 25.63598633 -166.87768555 25.63598633 -163.55908203 24.08398438 C-162.94851456 23.79453445 -162.33794708 23.50508453 -161.70887756 23.2068634 C-159.62567536 22.23032563 -157.53041927 21.28500625 -155.43017578 20.34570312 C-154.66517761 20.00166443 -153.90017944 19.65762573 -153.11199951 19.30316162 C-147.21848577 16.66369668 -141.29569078 14.09399506 -135.36767578 11.53320312 C-133.59474296 10.76335781 -131.82195563 9.99317736 -130.04931641 9.22265625 C-110.15805549 0.58924237 -110.15805549 0.58924237 -105.43017578 1.34570312 C-101.31175124 3.9327966 -98.15993559 7.57835434 -94.99267578 11.22070312 C-94.10708984 12.22037109 -94.10708984 12.22037109 -93.20361328 13.24023438 C-91.43017578 15.34570312 -91.43017578 15.34570312 -89.84423828 17.66992188 C-87.84949481 20.25586759 -86.30717354 21.77214399 -83.43017578 23.34570312 C-79.17681221 23.68013149 -75.21468838 23.30678703 -70.98486328 22.85351562 C-64.26396148 22.14618383 -57.55667206 22.19962117 -50.80517578 22.22070312 C-49.60795898 22.21683594 -48.41074219 22.21296875 -47.17724609 22.20898438 C-41.16603904 22.21574424 -35.3721971 22.4213887 -29.43017578 23.34570312 C-29.08212891 22.518125 -29.08212891 22.518125 -28.72705078 21.67382812 C-27.08196443 18.72060081 -24.99854627 16.55458092 -22.68017578 14.09570312 C-19.0287575 10.15934758 -15.67033011 6.19941132 -12.58642578 1.80664062 C-9.4940547 -2.10061202 -4.30502711 -1.15907903 0 0 Z M-3.43017578 13.34570312 C-8.85178828 18.50140547 -13.64736391 23.93442651 -18.25439453 29.83007812 C-23.63046348 36.04585622 -23.63046348 36.04585622 -27.47599792 36.68655396 C-29.99651849 36.79206819 -32.48645649 36.76882308 -35.00830078 36.70117188 C-35.93431091 36.69314041 -36.86032104 36.68510895 -37.81439209 36.67683411 C-40.77024187 36.6479 -43.724777 36.59173303 -46.68017578 36.53320312 C-49.62112248 36.49047225 -52.56202806 36.45351561 -55.50311279 36.42170715 C-57.32975396 36.40029116 -59.15633146 36.37182735 -60.98272705 36.33500671 C-66.55140361 36.24933119 -71.91035775 36.63459246 -77.43017578 37.34570312 C-87.36042812 38.21896652 -87.36042812 38.21896652 -91.49267578 34.84570312 C-92.13205078 34.02070312 -92.77142578 33.19570313 -93.43017578 32.34570312 C-94.09017578 32.34570312 -94.75017578 32.34570312 -95.43017578 32.34570312 C-95.73568359 31.5490625 -95.73568359 31.5490625 -96.04736328 30.73632812 C-98.02523188 27.31696208 -100.73344477 24.83232392 -103.55517578 22.09570312 C-104.11849609 21.54140625 -104.68181641 20.98710937 -105.26220703 20.41601562 C-106.64703606 19.05465828 -108.03800782 17.69955453 -109.43017578 16.34570312 C-117.3650814 18.76260607 -124.87688581 22.04172637 -132.45141602 25.38867188 C-134.62150934 26.34739675 -136.79414828 27.30015002 -138.96728516 28.25195312 C-140.36522334 28.86619126 -141.76301497 29.48076308 -143.16064453 30.09570312 C-143.80140427 30.37704102 -144.442164 30.65837891 -145.1023407 30.94824219 C-148.93450911 32.64361196 -152.696491 34.44359 -156.43017578 36.34570312 C-156.54084698 41.70710803 -156.46893596 47.03618084 -156.13720703 52.38867188 C-156.08363037 53.27586914 -156.03005371 54.16306641 -155.97485352 55.07714844 C-155.86275752 56.86487789 -155.74134634 58.65205039 -155.61010742 60.43847656 C-155.55846436 61.27282227 -155.50682129 62.10716797 -155.45361328 62.96679688 C-155.40124512 63.71372803 -155.34887695 64.46065918 -155.29492188 65.23022461 C-155.51266906 68.63596352 -156.71400854 70.71133947 -159.24267578 72.95117188 C-159.96455078 73.47324219 -160.68642578 73.9953125 -161.43017578 74.53320312 C-168.15627751 79.5750629 -174.73019559 85.15007249 -180.43017578 91.34570312 C-180.43017578 92.00570312 -180.43017578 92.66570312 -180.43017578 93.34570312 C-181.09017578 93.34570312 -181.75017578 93.34570312 -182.43017578 93.34570312 C-184.13944391 95.35275315 -185.73206601 97.36099323 -187.30517578 99.47070312 C-187.73958984 100.04046875 -188.17400391 100.61023438 -188.62158203 101.19726562 C-190.72592645 103.97778077 -192.73533785 106.78219399 -194.62548828 109.71289062 C-196.43017578 112.34570312 -196.43017578 112.34570312 -198.43017578 113.34570312 C-200.83856256 113.43210182 -203.21751459 113.46138076 -205.62548828 113.44335938 C-206.33293182 113.44194443 -207.04037537 113.44052948 -207.76925659 113.43907166 C-210.03127247 113.43346913 -212.29318977 113.4209163 -214.55517578 113.40820312 C-216.08772644 113.40318845 -217.62027864 113.39862548 -219.15283203 113.39453125 C-222.91198466 113.38349889 -226.6710635 113.36623264 -230.43017578 113.34570312 C-233.05190835 119.8150088 -235.64952869 126.29360998 -238.23046875 132.77929688 C-239.1116353 134.9852988 -239.99833485 137.18909888 -240.890625 139.390625 C-242.17097568 142.55233637 -243.43133218 145.72138744 -244.68798828 148.89257812 C-245.29406418 150.37090118 -245.29406418 150.37090118 -245.91238403 151.87908936 C-246.27290863 152.79974182 -246.63343323 153.72039429 -247.00488281 154.66894531 C-247.49119675 155.88139923 -247.49119675 155.88139923 -247.98733521 157.11834717 C-248.54849357 159.9408063 -247.99871455 160.98114789 -246.43017578 163.34570312 C-244.94383202 164.84033505 -243.39425411 166.27329431 -241.80517578 167.65820312 C-240.91572266 168.43679687 -240.02626953 169.21539062 -239.10986328 170.01757812 C-237.78341797 171.17 -237.78341797 171.17 -236.43017578 172.34570312 C-235.64900391 173.05210937 -234.86783203 173.75851563 -234.06298828 174.48632812 C-233.35916016 175.12054688 -232.65533203 175.75476563 -231.93017578 176.40820312 C-231.30111328 176.97667969 -230.67205078 177.54515625 -230.02392578 178.13085938 C-228.49907115 179.54777625 -228.49907115 179.54777625 -226.43017578 179.34570312 C-225.29652197 182.74666455 -225.43334556 185.03711525 -225.62158203 188.61132812 C-225.68031494 189.88347168 -225.73904785 191.15561523 -225.79956055 192.46630859 C-225.83155548 193.14030701 -225.86355042 193.81430542 -225.89651489 194.50872803 C-226.47181199 206.9943729 -226.29984815 219.08074746 -224.90283203 231.52539062 C-223.49869764 244.71261891 -223.49869764 244.71261891 -226.93017578 248.97070312 C-231.18264032 253.31321985 -235.90288323 257.19891373 -240.53173828 261.13085938 C-241.50240234 262.01064453 -241.50240234 262.01064453 -242.49267578 262.90820312 C-243.08177734 263.42511719 -243.67087891 263.94203125 -244.27783203 264.47460938 C-246.02281951 267.30799583 -245.15123625 269.15378984 -244.43017578 272.34570312 C-243.58644491 274.53008716 -242.67005973 276.68720217 -241.69970703 278.81835938 C-241.42680344 279.42272324 -241.15389984 280.0270871 -240.87272644 280.64976501 C-240.00264369 282.57232209 -239.12284009 284.49024397 -238.24267578 286.40820312 C-237.67107161 287.6676782 -237.10010313 288.92744198 -236.52978516 290.1875 C-232.87009588 298.25860064 -229.15208921 306.30315209 -225.43017578 314.34570312 C-224.38861328 314.27351563 -223.34705078 314.20132812 -222.27392578 314.12695312 C-219.26452092 313.92453314 -216.25524442 313.75885721 -213.24267578 313.61132812 C-210.16464234 313.46015257 -207.11918565 313.21907098 -204.05517578 312.89257812 C-194.1016246 312.0415786 -194.1016246 312.0415786 -189.78173828 315.41210938 C-187.45525663 318.28143674 -185.45550161 321.25784841 -183.43017578 324.34570312 C-176.13468902 333.14108437 -167.92947319 340.15275828 -158.87939453 347.05664062 C-158.28489502 347.51095459 -157.69039551 347.96526855 -157.07788086 348.43334961 C-155.91609712 349.31800768 -154.75067888 350.19791749 -153.58129883 351.07250977 C-149.53889246 354.12826977 -149.53889246 354.12826977 -148.43017578 356.34570312 C-148.34430769 358.66986608 -148.32306535 360.99653619 -148.33251953 363.32226562 C-148.33393448 364.00751312 -148.33534943 364.69276062 -148.33680725 365.39877319 C-148.34240903 367.58946073 -148.35496172 369.78004643 -148.36767578 371.97070312 C-148.37269056 373.45507665 -148.3772535 374.93945178 -148.38134766 376.42382812 C-148.39237901 380.06448628 -148.40964479 383.70508476 -148.43017578 387.34570312 C-141.1552433 390.74695881 -133.82290903 393.8363759 -126.30517578 396.65820312 C-125.36158203 397.01720703 -124.41798828 397.37621094 -123.44580078 397.74609375 C-119.54262793 399.50972978 -119.54262793 399.50972978 -115.43017578 400.34570312 C-115.33000502 394.37244349 -115.25810325 388.39969113 -115.21044922 382.42578125 C-115.19054763 380.40095484 -115.16341632 378.37618424 -115.12841797 376.3515625 C-114.67240892 349.2592601 -121.40910817 327.37588114 -140.37548828 307.46679688 C-143.06131439 304.69414085 -145.83442753 302.02056943 -148.61767578 299.34570312 C-154.08462595 293.91368555 -158.36738893 287.85535551 -162.43017578 281.34570312 C-162.81592773 280.72920898 -163.20167969 280.11271484 -163.59912109 279.47753906 C-169.70726116 269.55622484 -174.04719941 259.48204921 -177.43017578 248.34570312 C-177.74728516 247.32089844 -178.06439453 246.29609375 -178.39111328 245.24023438 C-187.78744133 211.51578965 -182.01871985 175.68903394 -165.43017578 145.34570312 C-161.54528988 138.60376315 -157.02385183 132.52294073 -151.68017578 126.86914062 C-150.21873691 125.41644946 -150.21873691 125.41644946 -150.43017578 123.34570312 C-149.44017578 123.01570313 -148.45017578 122.68570313 -147.43017578 122.34570312 C-146.32943893 120.96978206 -145.22892295 119.59368382 -144.12939453 118.21679688 C-140.37280354 114.08022886 -135.83628811 110.75669349 -131.43017578 107.34570312 C-130.65802734 106.74628906 -129.88587891 106.146875 -129.09033203 105.52929688 C-111.953731 92.90386945 -92.37459718 85.42306329 -71.43017578 82.34570312 C-70.56392578 82.21421875 -69.69767578 82.08273438 -68.80517578 81.94726562 C-32.72788599 77.4376044 2.00068681 88.53182974 30.56982422 110.34570312 C35.51593198 114.29636781 39.61014302 118.42285623 43.56982422 123.34570312 C44.73191406 124.47878906 44.73191406 124.47878906 45.91748047 125.63476562 C65.79156554 145.94789528 76.69049295 176.28356606 77.56982422 204.34570312 C77.60978516 205.415625 77.64974609 206.48554688 77.69091797 207.58789062 C78.2588942 237.05583377 70.17071297 267.97323063 50.78466797 290.74414062 C49.36837624 292.27624664 49.36837624 292.27624664 49.56982422 294.34570312 C48.90982422 294.34570312 48.24982422 294.34570312 47.56982422 294.34570312 C46.06932486 295.82932007 46.06932486 295.82932007 44.50732422 297.78320312 C41.89835184 300.87192456 39.19500259 303.6944929 36.25732422 306.47070312 C21.65115162 320.95224968 10.68382459 341.18450727 10.45629883 362.06591797 C10.45645584 363.89616649 10.46202679 365.72642019 10.47216797 367.55664062 C10.47358292 368.52477692 10.47499786 369.49291321 10.47645569 370.49038696 C10.48203057 373.56719112 10.49457844 376.64392115 10.50732422 379.72070312 C10.51234247 381.81314999 10.5169048 383.905598 10.52099609 385.99804688 C10.53199177 391.11396063 10.54923907 396.22981933 10.56982422 401.34570312 C24.26616975 395.41147479 37.9422882 389.43641211 51.56982422 383.34570312 C51.68049542 377.98429822 51.60858439 372.65522541 51.27685547 367.30273438 C51.19649048 365.97193848 51.19649048 365.97193848 51.11450195 364.61425781 C51.00240596 362.82652836 50.88099478 361.03935586 50.74975586 359.25292969 C50.69811279 358.41858398 50.64646973 357.58423828 50.59326172 356.72460938 C50.54089355 355.97767822 50.48852539 355.23074707 50.43457031 354.46118164 C50.67304874 350.73118957 52.09563653 348.77625896 54.81982422 346.30273438 C55.72732422 345.59503906 56.63482422 344.88734375 57.56982422 344.15820312 C69.48541754 334.64444406 79.02548782 324.74747412 87.83911133 312.36083984 C91.36123784 307.44999632 91.36123784 307.44999632 93.56982422 306.34570312 C95.97542695 306.1896229 98.35685194 306.08765854 100.76513672 306.02929688 C101.82630203 305.99812523 101.82630203 305.99812523 102.90890503 305.96632385 C105.17077847 305.90089234 107.43276884 305.84197339 109.69482422 305.78320312 C111.22738844 305.7400118 112.75994079 305.69639731 114.29248047 305.65234375 C118.05147495 305.54521757 121.81058714 305.44393222 125.56982422 305.34570312 C129.30911452 296.44854935 132.97531061 287.52310841 136.55615234 278.56103516 C137.15504093 277.06809148 137.75832745 275.57690543 138.36572266 274.08740234 C139.2542842 271.90677559 140.12833187 269.72082202 140.99951172 267.53320312 C141.27334686 266.8696582 141.54718201 266.20611328 141.82931519 265.52246094 C142.85466103 262.91235131 143.61404049 260.84683849 143.36499023 258.02416992 C142.08456173 255.32139253 139.97978691 253.96571647 137.63232422 252.15820312 C133.63773826 249.00430781 129.73851412 245.80226912 125.94482422 242.40820312 C125.12755859 241.67730469 124.31029297 240.94640625 123.46826172 240.19335938 C121.56982422 238.34570312 121.56982422 238.34570312 120.56982422 236.34570312 C120.66190204 233.60416025 120.81256904 230.89264457 121.00732422 228.15820312 C121.79126325 215.43087096 121.75077203 203.15225317 120.28149414 190.48486328 C118.64513334 176.08547107 118.64513334 176.08547107 120.85498047 171.92773438 C121.44150391 171.34378906 122.02802734 170.75984375 122.63232422 170.15820312 C123.26396484 169.51238281 123.89560547 168.8665625 124.54638672 168.20117188 C127.05573011 165.90013305 129.60871313 163.67774218 132.28466797 161.57226562 C132.70876953 161.1675 133.13287109 160.76273438 133.56982422 160.34570312 C133.56982422 159.68570313 133.56982422 159.02570313 133.56982422 158.34570312 C134.14732422 158.11882812 134.72482422 157.89195312 135.31982422 157.65820312 C138.13215212 156.01767852 139.59952883 153.90791499 141.56982422 151.34570312 C141.17714355 150.47993652 140.78446289 149.61416992 140.37988281 148.72216797 C138.89113289 145.43880468 137.40429589 142.15457786 135.91796875 138.87011719 C135.28045079 137.4620118 134.64244793 136.05412582 134.00390625 134.64648438 C130.1353488 126.11738134 126.34691298 117.56546178 122.72070312 108.93017578 C121.80735883 106.46380161 121.80735883 106.46380161 120.56982422 105.34570312 C117.49735644 105.43917369 114.44889376 105.5902236 111.38232422 105.78320312 C103.09434007 106.25792721 94.87311445 106.46942765 86.56982422 106.34570312 C86.32103516 105.79011719 86.07224609 105.23453125 85.81591797 104.66210938 C78.00652079 90.14495411 63.51199543 79.10591377 50.56982422 69.34570312 C49.43867187 68.44851562 49.43867187 68.44851562 48.28466797 67.53320312 C46.6434273 66.15593401 46.6434273 66.15593401 44.56982422 66.34570312 C43.38164454 62.6125988 43.45619683 59.07078668 43.47216797 55.17382812 C43.47429039 54.15020172 43.47429039 54.15020172 43.47645569 53.105896 C43.48203338 50.93578629 43.49458168 48.76578142 43.50732422 46.59570312 C43.51234211 45.1204442 43.51690451 43.64518366 43.52099609 42.16992188 C43.53199547 38.56181514 43.54924469 34.95376937 43.56982422 31.34570312 C37.35885522 28.94198134 31.14746953 26.53933883 24.93579102 24.13745117 C22.82208772 23.31999237 20.70848044 22.50228528 18.5949707 21.68432617 C15.55949626 20.50960255 12.52367923 19.33576824 9.48779297 18.16210938 C8.54083054 17.79541641 7.5938681 17.42872345 6.61820984 17.05091858 C5.73752335 16.71064133 4.85683685 16.37036407 3.94946289 16.01977539 C3.17446945 15.71999283 2.39947601 15.42021027 1.60099792 15.11134338 C-0.06210451 14.48444566 -1.74405021 13.90774498 -3.43017578 13.34570312 Z M-129.43017578 122.34570312 C-130.59419922 123.24482422 -130.59419922 123.24482422 -131.78173828 124.16210938 C-152.31027789 140.84621339 -166.31509412 169.65261037 -169.21484375 195.75585938 C-172.00868594 229.35798852 -164.4819558 260.25891656 -142.43017578 286.34570312 C-137.92779612 291.57318513 -133.25798213 296.54320956 -128.30517578 301.34570312 C-110.32670709 319.26868271 -102.50541102 343.63108758 -101.80517578 368.53320312 C-101.76650391 369.67595703 -101.72783203 370.81871094 -101.68798828 371.99609375 C-101.59483444 374.77906469 -101.51147249 377.56236058 -101.43017578 380.34570312 C-95.16017578 380.34570312 -88.89017578 380.34570312 -82.43017578 380.34570312 C-82.33975016 369.62748508 -82.26638793 358.90952103 -82.22292709 348.19100761 C-82.20206641 343.2137826 -82.17377641 338.23683245 -82.12841797 333.25976562 C-82.08490619 328.45517404 -82.06102725 323.65084658 -82.05066681 318.84607315 C-82.04328502 317.01445484 -82.02886999 315.18285072 -82.00725555 313.35134506 C-81.97815037 310.78257947 -81.9742227 308.21490047 -81.97607422 305.64599609 C-81.96169312 304.89145645 -81.94731201 304.13691681 -81.93249512 303.35951233 C-81.97248146 298.22093744 -83.14793356 295.27907519 -86.43017578 291.34570312 C-89.19339093 290.02988639 -91.74875134 289.4566061 -94.75830078 288.96679688 C-102.53003273 287.64369527 -107.59409427 285.1187606 -113.24267578 279.59570312 C-116.59838047 274.61008473 -118.04001802 269.47383638 -119.11767578 263.59570312 C-120.95491813 259.04634113 -124.04523812 257.32806036 -128.43017578 255.34570312 C-129.09017578 255.34570312 -129.75017578 255.34570312 -130.43017578 255.34570312 C-130.71634766 254.75789062 -131.00251953 254.17007813 -131.29736328 253.56445312 C-132.36414742 251.39759924 -132.36414742 251.39759924 -133.50048828 249.62695312 C-136.99604484 243.72334649 -137.42714595 238.08175373 -136.43017578 231.34570312 C-133.76459106 223.16746235 -129.6582433 218.8480288 -122.36767578 214.53320312 C-115.88675585 212.02724742 -107.42105195 212.05365217 -101.05517578 214.84570312 C-94.66994865 218.66060577 -90.28261642 224.16529035 -88.43017578 231.34570312 C-88.16455078 234.78320312 -88.16455078 234.78320312 -88.18017578 238.34570312 C-88.17244141 240.10914063 -88.17244141 240.10914063 -88.16455078 241.90820312 C-88.43167274 245.36507557 -89.19137095 248.12087786 -90.43017578 251.34570312 C-91.09017578 251.34570312 -91.75017578 251.34570312 -92.43017578 251.34570312 C-92.94580078 252.06757813 -93.46142578 252.78945312 -93.99267578 253.53320312 C-97.24452737 257.28533958 -101.0376632 259.14006113 -105.43017578 261.34570312 C-105.93356375 266.63127679 -104.77694574 269.25520651 -101.43017578 273.34570312 C-98.03218549 275.50241842 -94.47609058 276.00397676 -90.55517578 276.72070312 C-82.10824673 278.48011529 -77.53877748 281.30411701 -72.43017578 288.34570312 C-69.67397831 293.73347702 -68.98660685 297.9387038 -68.99780273 303.94311523 C-68.98251526 305.18822876 -68.98251526 305.18822876 -68.96691895 306.45849609 C-68.93691978 309.18008285 -68.92754315 311.90131688 -68.91845703 314.62304688 C-68.90160063 316.518775 -68.8834491 318.41449201 -68.86405945 320.31019592 C-68.81665772 325.28313729 -68.78678483 330.25603358 -68.76062012 335.22912598 C-68.73076496 340.31039324 -68.68425166 345.3915054 -68.63916016 350.47265625 C-68.55323886 360.43025724 -68.48584393 370.38789025 -68.43017578 380.34570312 C-65.13017578 380.34570312 -61.83017578 380.34570312 -58.43017578 380.34570312 C-58.43017578 321.93570313 -58.43017578 263.52570313 -58.43017578 203.34570312 C-61.40017578 201.69570312 -64.37017578 200.04570312 -67.43017578 198.34570312 C-73.06070596 192.9237111 -76.25534865 187.51767234 -76.52392578 179.57226562 C-76.18696831 173.42279174 -74.79898056 169.45324586 -71.43017578 164.34570312 C-71.43017578 163.68570313 -71.43017578 163.02570313 -71.43017578 162.34570312 C-70.77017578 162.34570312 -70.11017578 162.34570312 -69.43017578 162.34570312 C-69.43017578 161.68570313 -69.43017578 161.02570313 -69.43017578 160.34570312 C-68.74955078 160.07757813 -68.06892578 159.80945313 -67.36767578 159.53320312 C-64.35444015 158.36931491 -64.35444015 158.36931491 -61.30517578 156.72070312 C-55.02142002 154.05693709 -47.98403481 154.42527944 -41.68017578 156.84570312 C-35.10368879 160.21644735 -30.83391871 165.32101077 -28.43017578 172.28320312 C-26.63816007 179.55144077 -27.52801317 185.93669721 -31.13330078 192.49414062 C-34.89794223 197.86896004 -39.60824859 200.43473953 -45.43017578 203.34570312 C-45.43017578 261.75570312 -45.43017578 320.16570312 -45.43017578 380.34570312 C-42.13017578 380.34570312 -38.83017578 380.34570312 -35.43017578 380.34570312 C-35.42653015 379.30080215 -35.42288452 378.25590118 -35.41912842 377.17933655 C-35.38210485 367.30742281 -35.32425187 357.43581889 -35.24627304 347.56414127 C-35.20685023 342.48960687 -35.17463626 337.41524465 -35.15917969 332.34057617 C-35.1439789 327.43851211 -35.10947263 322.53692157 -35.06186676 317.63506889 C-35.04708822 315.76973028 -35.0391368 313.90432404 -35.03829193 312.03892708 C-35.01858631 290.33685666 -35.01858631 290.33685666 -27.36767578 282.47070312 C-22.43293455 277.89523642 -16.30740871 277.01256358 -9.86376953 275.90429688 C-6.06817841 275.2102102 -3.92416121 274.76559074 -0.93017578 272.22070312 C1.0209327 268.48107853 1.28522725 265.54350838 1.56982422 261.34570312 C0.91755859 261.01699219 0.26529297 260.68828125 -0.40673828 260.34960938 C-7.81741935 256.3163626 -11.68932965 251.82739538 -15.43017578 244.34570312 C-16.32180857 235.58222654 -15.58808109 228.62665126 -10.43017578 221.34570312 C-6.14750717 216.3392032 -0.4393871 213.94379858 5.95263672 212.99023438 C12.03148754 212.63769914 16.17570786 214.18786229 21.44091797 217.15429688 C23.64401119 218.47451255 23.64401119 218.47451255 26.56982422 219.34570312 C27.56982422 221.53320312 27.56982422 221.53320312 28.56982422 224.34570312 C29.08544922 225.29445312 29.60107422 226.24320313 30.13232422 227.22070312 C32.9870855 233.42670591 33.01650609 239.75526351 31.56982422 246.34570312 C30.00732422 249.28320312 30.00732422 249.28320312 28.56982422 251.34570312 C28.56982422 252.00570312 28.56982422 252.66570312 28.56982422 253.34570312 C28.00392578 253.62800781 27.43802734 253.9103125 26.85498047 254.20117188 C26.10087891 254.57886719 25.34677734 254.9565625 24.56982422 255.34570312 C23.82603516 255.69246094 23.08224609 256.03921875 22.31591797 256.39648438 C18.35930481 258.55889732 16.02939096 260.07218543 14.46044922 264.41992188 C13.99234611 266.70062424 13.55985754 268.98893127 13.16357422 271.28320312 C11.89145514 277.84465942 7.81529796 281.54016336 2.56982422 285.34570312 C-1.70786813 287.61036378 -5.2731073 288.52104478 -10.05517578 289.22070312 C-15.18916344 290.05286046 -17.32284112 291.20259025 -20.43017578 295.34570312 C-21.98897133 298.46329423 -21.55969711 301.77084798 -21.54370117 305.19189453 C-21.54392021 306.40665215 -21.54392021 306.40665215 -21.54414368 307.64595032 C-21.54344555 310.32974909 -21.53565782 313.01347894 -21.52783203 315.69726562 C-21.5259675 317.55528729 -21.52454376 319.41330945 -21.52354431 321.27133179 C-21.51972193 326.16712801 -21.50989401 331.06289467 -21.49884033 335.9586792 C-21.48862022 340.95226644 -21.4840454 345.94585845 -21.47900391 350.93945312 C-21.46827151 360.74155155 -21.45067695 370.54362026 -21.43017578 380.34570312 C-15.49017578 380.34570312 -9.55017578 380.34570312 -3.43017578 380.34570312 C-3.39279297 378.78722656 -3.35541016 377.22875 -3.31689453 375.62304688 C-2.33494574 341.84184431 6.8988588 317.45783178 31.13232422 293.90820312 C53.5295572 271.63074144 64.86868679 241.93426166 65.00732422 210.59570312 C64.71147072 180.9877533 54.39148635 155.9008425 35.56982422 133.34570312 C35.01037109 132.55808594 34.45091797 131.77046875 33.87451172 130.95898438 C33.22869141 130.16041016 33.22869141 130.16041016 32.56982422 129.34570312 C31.90982422 129.34570312 31.24982422 129.34570312 30.56982422 129.34570312 C30.56982422 128.68570313 30.56982422 128.02570313 30.56982422 127.34570312 C27.10251998 124.10911304 23.31593122 121.2513374 19.56982422 118.34570312 C18.79123047 117.74113281 18.01263672 117.1365625 17.21044922 116.51367188 C5.24831465 107.70706591 -8.134423 101.27819175 -22.43017578 97.34570312 C-23.49107422 97.02730469 -24.55197266 96.70890625 -25.64501953 96.38085938 C-62.53854629 87.03909122 -100.79370036 98.66111152 -129.43017578 122.34570312 Z M-61.30517578 172.09570312 C-62.89099798 175.26734752 -63.30792579 177.80045342 -63.43017578 181.34570312 C-61.93946711 185.42553739 -60.42399183 188.45389552 -56.43017578 190.34570312 C-51.93205889 191.02928186 -48.54378246 190.9380471 -44.49267578 188.78320312 C-41.85819122 185.66972137 -41.05484826 183.37137022 -40.43017578 179.34570312 C-41.33714495 174.30698554 -43.48812103 171.55435234 -47.43017578 168.34570312 C-52.59140133 166.17255552 -57.36436604 168.41761404 -61.30517578 172.09570312 Z M-122.43017578 231.34570312 C-124.04977792 234.58490739 -123.99635787 237.84448515 -123.43017578 241.34570312 C-121.02720464 245.27783772 -119.23494722 246.97312375 -115.05517578 248.90820312 C-110.53451329 249.45380032 -108.34714997 248.60549592 -104.43017578 246.34570312 C-101.36526614 243.38295714 -100.59597679 240.57362876 -100.43017578 236.34570312 C-101.60248201 232.50314381 -102.59535159 230.08511883 -105.61767578 227.40820312 C-113.06065309 224.5964117 -117.13364587 225.91998956 -122.43017578 231.34570312 Z M-0.43017578 229.34570312 C-2.77501471 232.78480022 -3.44098359 234.72965822 -3.36767578 238.90820312 C-2.31321171 242.77457139 -1.3755637 244.63284583 1.56982422 247.34570312 C5.87385666 249.29469895 7.78287627 249.59490331 12.31982422 248.15820312 C16.86453101 245.66993754 16.86453101 245.66993754 19.22216797 241.29492188 C19.76671553 236.97583916 19.85272017 234.90139159 17.81982422 230.90820312 C14.77138272 227.43636698 13.35775021 226.40924554 8.69482422 226.03320312 C4.87765834 226.15227068 2.54017417 226.79968888 -0.43017578 229.34570312 Z M-101.43017578 394.34570312 C-101.43017578 398.63570313 -101.43017578 402.92570312 -101.43017578 407.34570312 C-94.83017578 407.67570312 -88.23017578 408.00570313 -81.43017578 408.34570312 C-80.43017578 416.34570312 -80.43017578 416.34570312 -81.60327148 418.3137207 C-83.76290441 419.53365501 -85.18559848 419.76965428 -87.66064453 419.85742188 C-88.46308594 419.89287109 -89.26552734 419.92832031 -90.09228516 419.96484375 C-90.92566406 419.98740234 -91.75904297 420.00996094 -92.61767578 420.03320312 C-93.46265625 420.06736328 -94.30763672 420.10152344 -95.17822266 420.13671875 C-97.26174227 420.21911783 -99.34593794 420.28408957 -101.43017578 420.34570312 C-101.43017578 424.96570313 -101.43017578 429.58570313 -101.43017578 434.34570312 C-99.77977295 434.36552246 -98.12937012 434.3853418 -96.42895508 434.40576172 C-90.31795743 434.48171326 -84.20720115 434.57044681 -78.09643555 434.66308594 C-75.44934853 434.70141892 -72.80220865 434.73626407 -70.1550293 434.76757812 C-66.35462522 434.81313457 -62.55458646 434.8711451 -58.75439453 434.93164062 C-57.56682053 434.94319183 -56.37924652 434.95474304 -55.15568542 434.96664429 C-53.50431328 434.99644882 -53.50431328 434.99644882 -51.81958008 435.02685547 C-50.84917282 435.04017914 -49.87876556 435.05350281 -48.87895203 435.06723022 C-46.43017578 435.34570312 -46.43017578 435.34570312 -43.43017578 437.34570312 C-43.02173655 440.05773964 -43.29680711 442.58941733 -43.43017578 445.34570312 C-46.6648146 447.25337613 -49.10729583 447.61220481 -52.84130859 447.66455078 C-53.92212708 447.68442047 -55.00294556 447.70429016 -56.11651611 447.72476196 C-57.85732452 447.74208878 -57.85732452 447.74208878 -59.63330078 447.75976562 C-60.82622742 447.77913177 -62.01915405 447.79849792 -63.24822998 447.81845093 C-67.05880582 447.8782358 -70.86941189 447.9246284 -74.68017578 447.97070312 C-77.2635223 448.00888385 -79.8468561 448.04793563 -82.43017578 448.08789062 C-88.76339624 448.18393656 -95.09669327 448.26898749 -101.43017578 448.34570312 C-100.82168523 454.15712972 -100.0010431 456.55522779 -95.43017578 460.34570312 C-92.36136378 461.88010913 -89.13947203 461.51063072 -85.77099609 461.52270508 C-84.98054901 461.52927628 -84.19010193 461.53584747 -83.3757019 461.5426178 C-80.75323394 461.56236831 -78.13082333 461.57401808 -75.50830078 461.58398438 C-74.16528019 461.59009767 -74.16528019 461.59009767 -72.79512787 461.59633446 C-68.05498993 461.617204 -63.314881 461.63150113 -58.57470703 461.64086914 C-53.68085152 461.65192744 -48.78745148 461.68631801 -43.89375687 461.72604084 C-40.12932496 461.75220232 -36.36500157 461.76056062 -32.60048676 461.76415062 C-30.79679035 461.76901884 -28.99309887 461.78063958 -27.18949127 461.79918861 C-24.66160669 461.82356751 -22.13490003 461.82261748 -19.60693359 461.81567383 C-18.86488678 461.82848389 -18.12283997 461.84129395 -17.35830688 461.85449219 C-12.25519925 461.80352985 -9.34737671 460.58133784 -5.43017578 457.34570312 C-3.57681551 453.97595718 -3.43017578 452.27463824 -3.43017578 448.34570312 C-4.98478516 448.25482422 -4.98478516 448.25482422 -6.57080078 448.16210938 C-7.94060451 448.07766942 -9.31039553 447.99302316 -10.68017578 447.90820312 C-11.36208984 447.86888672 -12.04400391 447.82957031 -12.74658203 447.7890625 C-16.07465619 447.5790384 -19.2327298 447.3263631 -22.43017578 446.34570312 C-22.7929533 438.96922698 -22.7929533 438.96922698 -21.43017578 436.62695312 C-18.2767925 434.60681696 -14.8812578 434.76942616 -11.24267578 434.65820312 C-10.49308594 434.62404297 -9.74349609 434.58988281 -8.97119141 434.5546875 C-7.1247074 434.47236019 -5.27746585 434.40735032 -3.43017578 434.34570312 C-3.43017578 429.72570312 -3.43017578 425.10570312 -3.43017578 420.34570312 C-20.92017578 420.01570313 -38.41017578 419.68570312 -56.43017578 419.34570312 C-57.43017578 412.34570312 -57.43017578 412.34570312 -56.30656433 409.94232178 C-53.88161945 407.87893665 -52.57243305 407.83105875 -49.40795898 407.79980469 C-48.38712723 407.78008606 -47.36629547 407.76036743 -46.31452942 407.74005127 C-45.21445053 407.73882263 -44.11437164 407.73759399 -42.98095703 407.73632812 C-41.85320358 407.71979187 -40.72545013 407.70325562 -39.56352234 407.68621826 C-35.95651898 407.63757855 -32.34993768 407.61633113 -28.74267578 407.59570312 C-26.29929499 407.56755693 -23.85593399 407.53763143 -21.41259766 407.50585938 C-15.41849175 407.4318148 -9.42462237 407.38233743 -3.43017578 407.34570312 C-3.43017578 403.05570312 -3.43017578 398.76570313 -3.43017578 394.34570312 C-35.77017578 394.34570312 -68.11017578 394.34570312 -101.43017578 394.34570312 Z " fill="#1C1C1C" transform="translate(302.43017578125,0.654296875)"/>
<path d="M0 0 C0.33 0 0.66 0 1 0 C3.31728971 14.63713583 4.30943712 29.01627888 4.3125 43.8125 C4.31572266 44.58824371 4.31894531 45.36398743 4.32226562 46.16323853 C4.32791761 48.38643904 4.31773729 50.60889912 4.30078125 52.83203125 C4.29216064 54.11827393 4.28354004 55.4045166 4.2746582 56.72973633 C4.02005943 59.7611591 3.60414649 61.46266254 2 64 C0.38806969 60.77613938 1.18738404 57.32422919 1.4375 53.8125 C2.22143903 41.08516783 2.18094781 28.80655005 0.71166992 16.13916016 C0.09584867 10.72015245 -0.08745763 5.45516997 0 0 Z " fill="#A0A0A0" transform="translate(421,175)"/>
<path d="M0 0 C0.33 0.66 0.66 1.32 1 2 C-3.15858452 8.27864722 -7.87644344 12.64547089 -14 17 C-14 14 -14 14 -12.71484375 12.37426758 C-12.12832031 11.80345459 -11.54179687 11.2326416 -10.9375 10.64453125 C-10.30585938 10.02255859 -9.67421875 9.40058594 -9.0234375 8.75976562 C-8.35570312 8.11716797 -7.68796875 7.47457031 -7 6.8125 C-6.33226562 6.15830078 -5.66453125 5.50410156 -4.9765625 4.83007812 C-3.32421559 3.21313865 -1.66528399 1.60359509 0 0 Z " fill="#676767" transform="translate(335,292)"/>
<path d="M0 0 C0 3.29222682 -0.41495585 4.02719653 -2.25 6.625 C-2.66765625 7.23601562 -3.0853125 7.84703125 -3.515625 8.4765625 C-5.31481092 10.32309542 -6.53716136 10.38895481 -9 11 C-10.97173354 12.61054862 -10.97173354 12.61054862 -12.75 14.5625 C-13.36359375 15.20316406 -13.9771875 15.84382812 -14.609375 16.50390625 C-15.06828125 16.99761719 -15.5271875 17.49132812 -16 18 C-16.66 17.67 -17.32 17.34 -18 17 C-12.52817321 11.41417682 -6.93615794 6.08813538 -1 1 C-0.67 0.67 -0.34 0.34 0 0 Z " fill="#727272" transform="translate(442,154)"/>
<path d="M0 0 C2.43718285 3.65577427 2.29880388 5.58669902 2.3125 9.9375 C2.32925781 11.16339844 2.34601563 12.38929688 2.36328125 13.65234375 C2 17 2 17 -1 21 C-0.67 14.07 -0.34 7.14 0 0 Z " fill="#717171" transform="translate(213,229)"/>
<path d="M0 0 C0.625 1.8125 0.625 1.8125 1 4 C-1 7 -1 7 -4.0625 7.6875 C-8.39340028 8.03122224 -12.65924078 8.08858692 -17 8 C-17 7.67 -17 7.34 -17 7 C-15.78763672 6.87044922 -15.78763672 6.87044922 -14.55078125 6.73828125 C-7.50887154 6.04910684 -7.50887154 6.04910684 -1.75 2.375 C-1.1725 1.59125 -0.595 0.8075 0 0 Z " fill="#646464" transform="translate(302,270)"/>
<path d="M0 0 C0.66 0.33 1.32 0.66 2 1 C-0.35990044 4.35354274 -3.06718789 7.14050819 -6 10 C-6.598125 10.598125 -7.19625 11.19625 -7.8125 11.8125 C-8.204375 12.204375 -8.59625 12.59625 -9 13 C-9.66 12.34 -10.32 11.68 -11 11 C-7.37 7.37 -3.74 3.74 0 0 Z " fill="#5C5C5C" transform="translate(126,69)"/>
<path d="M0 0 C3.98381075 2.16264012 6.88983545 4.71211176 10 8 C9.67 8.66 9.34 9.32 9 10 C8.01 9.67 7.02 9.34 6 9 C5.3125 6.9375 5.3125 6.9375 5 5 C3.35 5 1.7 5 0 5 C0 3.35 0 1.7 0 0 Z " fill="#505050" transform="translate(450,245)"/>
<path d="M0 0 C0.99 0.66 1.98 1.32 3 2 C2.19175781 1.97679687 1.38351562 1.95359375 0.55078125 1.9296875 C-0.51785156 1.91164062 -1.58648437 1.89359375 -2.6875 1.875 C-3.74324219 1.85179687 -4.79898438 1.82859375 -5.88671875 1.8046875 C-9.77818074 2.04881937 -12.55973807 3.27986904 -16 5 C-16.66 4.34 -17.32 3.68 -18 3 C-12.08994881 -0.1520273 -6.67140297 -0.81799049 0 0 Z " fill="#7A7A7A" transform="translate(256,155)"/>
<path d="M0 0 C0.66 0.33 1.32 0.66 2 1 C1.113125 1.53625 0.22625 2.0725 -0.6875 2.625 C-3.1565906 4.24771203 -4.91449068 5.93780617 -6.75 8.25 C-7.4925 9.1575 -8.235 10.065 -9 11 C-9.66 11 -10.32 11 -11 11 C-9.40128806 6.84334895 -6.38692539 3.8008925 -3 1 C-2.01 0.67 -1.02 0.34 0 0 Z " fill="#6E6E6E" transform="translate(282,278)"/>
<path d="M0 0 C0 4.85089963 -2.40896448 7.38147446 -5.6875 10.8125 C-6.450625 11.534375 -7.21375 12.25625 -8 13 C-8.66 12.67 -9.32 12.34 -10 12 C-6.7 8.04 -3.4 4.08 0 0 Z " fill="#636363" transform="translate(386,318)"/>
<path d="M0 0 C-1.53009089 3.44270451 -3.4931222 6.18925822 -6 9 C-6.99 9.33 -7.98 9.66 -9 10 C-7.6834994 5.81113445 -4.97532335 0 0 0 Z " fill="#656565" transform="translate(298,217)"/>
<path d="M0 0 C0.33 0.99 0.66 1.98 1 3 C-1.31 4.98 -3.62 6.96 -6 9 C-6 6 -6 6 -4.6875 4.39453125 C-4.130625 3.87246094 -3.57375 3.35039063 -3 2.8125 C-2.443125 2.28269531 -1.88625 1.75289063 -1.3125 1.20703125 C-0.6628125 0.60955078 -0.6628125 0.60955078 0 0 Z " fill="#777777" transform="translate(114,81)"/>
<path d="M0 0 C0.66 0.33 1.32 0.66 2 1 C-1.32307692 5.8 -1.32307692 5.8 -4.75 6.8125 C-5.4925 6.874375 -6.235 6.93625 -7 7 C-4.66666667 4.66666667 -2.33333333 2.33333333 0 0 Z " fill="#6F6F6F" transform="translate(172,106)"/>
<path d="M0 0 C0.99 0.33 1.98 0.66 3 1 C0.36 2.98 -2.28 4.96 -5 7 C-3.38262276 3.76524552 -2.52370777 2.29427979 0 0 Z " fill="#737373" transform="translate(325,302)"/>
<path d="M0 0 C0.66 0.33 1.32 0.66 2 1 C1.2884375 1.61875 1.2884375 1.61875 0.5625 2.25 C-1.16266518 4.182185 -1.56584875 5.48192275 -2 8 C-2.99 7.67 -3.98 7.34 -5 7 C-3.70700306 4.11562221 -2.34058637 2.12780579 0 0 Z " fill="#7A7A7A" transform="translate(160,116)"/>
<path d="M0 0 C0.6875 1.8125 0.6875 1.8125 1 4 C-0.3125 5.75 -0.3125 5.75 -2 7 C-2.66 7 -3.32 7 -4 7 C-2.92598892 4.08482708 -2.22189824 2.22189824 0 0 Z " fill="#777777" transform="translate(347,277)"/>
</svg>
